<?xml version="1.0" encoding="UTF-8" standalone="no"?>
<svg
   xmlns:dc="http://purl.org/dc/elements/1.1/"
   xmlns:cc="http://creativecommons.org/ns#"
   xmlns:rdf="http://www.w3.org/1999/02/22-rdf-syntax-ns#"
   xmlns:svg="http://www.w3.org/2000/svg"
   xmlns="http://www.w3.org/2000/svg"
   xmlns:xlink="http://www.w3.org/1999/xlink"
   xmlns:sodipodi="http://sodipodi.sourceforge.net/DTD/sodipodi-0.dtd"
   xmlns:inkscape="http://www.inkscape.org/namespaces/inkscape"
   width="150"
   height="39"
   viewBox="0 0 150 39"
   version="1.1"
   id="svg32"
   sodipodi:docname="smpte_logo.svg"
   inkscape:version="1.0.2-2 (e86c870879, 2021-01-15)">
  <metadata
     id="metadata36">
    <rdf:RDF>
      <cc:Work
         rdf:about="">
        <dc:format>image/svg+xml</dc:format>
        <dc:type
           rdf:resource="http://purl.org/dc/dcmitype/StillImage" />
      </cc:Work>
    </rdf:RDF>
  </metadata>
  <sodipodi:namedview
     pagecolor="#ffffff"
     bordercolor="#666666"
     borderopacity="1"
     objecttolerance="10"
     gridtolerance="10"
     guidetolerance="10"
     inkscape:pageopacity="0"
     inkscape:pageshadow="2"
     inkscape:window-width="1368"
     inkscape:window-height="850"
     id="namedview34"
     showgrid="false"
     inkscape:zoom="4.0433333"
     inkscape:cx="75.068146"
     inkscape:cy="12.214277"
     inkscape:window-x="-6"
     inkscape:window-y="-6"
     inkscape:window-maximized="1"
     inkscape:current-layer="svg32" />
  <defs
     id="defs3">
    <polygon
       id="prefix__logo_white-a"
       points="0 38.735 149.93 38.735 149.93 0 0 0" />
    <mask
       id="prefix__logo_white-b"
       fill="#fff">
      <use
         xlink:href="#prefix__logo_white-a"
         id="use9" />
    </mask>
  </defs>
  <path
     fill="#ffffff"
     d="M 55.064735,28.993444 H 40.395861 V 25.64808 h 14.666556 c 1.107616,0 1.990398,-0.278146 2.651656,-0.82914 0.605298,-0.519205 0.909271,-1.135099 0.909271,-1.848344 0,-0.712914 -0.293046,-1.311921 -0.883443,-1.794371 -0.658941,-0.534106 -1.550663,-0.803311 -2.677484,-0.803311 h -9.098344 c -1.891391,0 -3.392715,-0.551325 -4.497682,-1.658609 -0.999338,-0.999338 -1.499338,-2.22053 -1.499338,-3.666225 0,-1.427815 0.5,-2.640729 1.499338,-3.640398 1.104967,-1.106953 2.604304,-1.6586092 4.495695,-1.6586092 H 60.497185 V 13.094437 H 45.962086 c -0.715563,0 -1.277483,0.196027 -1.687086,0.58808 -0.411258,0.39437 -0.615894,0.856953 -0.615894,1.391721 0,0.536093 0.187748,0.98212 0.562252,1.339735 0.428476,0.408941 1.007947,0.613908 1.740728,0.613908 h 9.100331 c 2.052649,0 3.696358,0.624834 4.92649,1.873841 1.107285,1.141722 1.660596,2.524834 1.660596,4.148675 0,1.624172 -0.544702,2.990067 -1.632781,4.09702 -1.21457,1.229802 -2.86457,1.846027 -4.951987,1.846027 M 74.56106,27.976457 68.112053,15.556921 65.326622,29.045331 h -3.77384 l 4.284437,-17.662914 c 0.286423,-1.178477 0.954304,-1.8119203 2.007284,-1.9026488 0.767219,-0.070861 1.49106,0.5625828 2.169537,1.8999998 l 6.442384,12.573179 6.427483,-12.598676 c 0.676821,-1.32086 1.400331,-1.9453637 2.167219,-1.8745028 1.053311,0.090728 1.72351,0.7152318 2.009602,1.8745028 l 4.28212,17.69106 h -3.77351 l -2.783113,-13.48841 -6.451656,12.419536 c -0.445695,0.855298 -1.050993,1.284106 -1.81788,1.284106 -0.856954,0 -1.507616,-0.428808 -1.955629,-1.284106 m 21.236655,1.016987 H 92.45202 V 9.7490728 h 13.80993 c 2.41027,0 4.32749,0.7218542 5.7553,2.1672182 1.28378,1.303312 1.92815,2.892716 1.92815,4.766888 0,1.873841 -0.64437,3.461258 -1.92815,4.764569 -1.42781,1.428146 -3.35364,2.141391 -5.78179,2.141391 h -8.456288 v -3.345364 h 8.991388 c 1.22947,0 2.21159,-0.374835 2.94172,-1.124504 0.66159,-0.678476 0.9914,-1.499337 0.9914,-2.463907 0,-0.962914 -0.32981,-1.783775 -0.9914,-2.462251 -0.71291,-0.732782 -1.69503,-1.098676 -2.94172,-1.098676 H 95.797715 Z"
     id="path5"
     style="fill-rule:nonzero;fill:#000000;fill-opacity:1;stroke:none;stroke-opacity:1" />
  <polygon
     fill="#ffffff"
     points="121.157,28.994 121.157,13.095 113.558,13.095 113.558,9.749 132.08,9.749 132.08,13.095 124.502,13.095 124.502,28.994 "
     id="polygon7"
     style="fill-rule:nonzero;fill:#000000;fill-opacity:1;stroke:none;stroke-opacity:1" />
  <polygon
     fill="#ffffff"
     points="149.073,17.564 138.073,17.564 138.073,20.909 149.073,20.909 "
     mask="url(#prefix__logo_white-b)"
     id="polygon12"
     style="fill-rule:evenodd;fill:#000000;fill-opacity:1;stroke:none;stroke-opacity:1" />
  <polygon
     fill="#ffffff"
     points="149.93,28.994 133.308,28.994 133.308,9.749 149.93,9.749 149.93,13.094 136.655,13.094 136.655,25.648 149.93,25.648 "
     mask="url(#prefix__logo_white-b)"
     id="polygon14"
     style="fill-rule:nonzero;fill:#000000;fill-opacity:1;stroke:none;stroke-opacity:1" />
  <path
     fill="#10eb10"
     d="M 2.0996358,9.1983113 C 0.10758278,15.246656 -3.3112583e-5,22.501622 2.5877152,27.216523 6.6814238,28.10096 13.675464,27.973477 17.349636,26.156258 12.869503,25.210894 5.8284437,19.316192 2.0996358,9.1983113"
     mask="url(#prefix__logo_white-b)"
     id="path16"
     style="fill-rule:evenodd" />
  <path
     fill="#eb10eb"
     d="M 19.152616,-1.3245033e-4 C 12.91851,1.2992053 6.581755,4.8333113 3.7926821,9.4316556 5.0738079,13.419073 8.6807616,19.412119 12.091358,21.68596 10.670828,17.333311 12.254603,8.287947 19.152616,-1.3245033e-4"
     mask="url(#prefix__logo_white-b)"
     id="path18"
     style="fill-rule:evenodd" />
  <path
     fill="#eb1010"
     d="M 35.645199,10.169205 C 31.402815,5.4198675 25.174007,1.6993377 19.796854,1.5831126 16.984271,4.6857616 13.597517,10.806291 13.334272,14.89702 16.393212,11.490397 25.018377,8.339404 35.645199,10.169205"
     mask="url(#prefix__logo_white-b)"
     id="path20"
     style="fill-rule:evenodd" />
  <path
     fill="#1010eb"
     d="m 34.596225,11.518808 c -4.093046,-0.884437 -11.087086,-0.757285 -14.761589,1.059934 4.480132,0.945364 11.521523,6.840066 15.250331,16.957947 1.991391,-6.048345 2.099338,-13.303312 -0.488742,-18.017881 z"
     mask="url(#prefix__logo_white-b)"
     id="path22"
     style="fill-rule:evenodd" />
  <path
     fill="#ebeb10"
     d="m 18.031656,38.734967 c 6.234106,-1.299007 12.570861,-4.833444 15.359933,-9.431788 -1.280794,-3.987086 -4.888079,-9.980133 -8.298675,-12.254305 1.420861,4.35298 -0.163245,13.398345 -7.061258,21.686093"
     mask="url(#prefix__logo_white-b)"
     id="path24"
     style="fill-rule:evenodd" />
  <path
     fill="#10ebeb"
     d="M 17.387748,37.152384 C 20.2,34.049404 23.586755,27.928874 23.85,23.838146 20.79106,27.244768 12.165894,30.39543 1.5390728,28.56596 5.7817881,33.315298 12.010265,37.036159 17.387748,37.152384 Z"
     mask="url(#prefix__logo_white-b)"
     id="path26"
     style="fill-rule:evenodd" />
  <path
     fill="#10eb10"
     d="M 2.0996358,9.1983113 C 0.10758278,15.246656 -3.3112583e-5,22.501622 2.5877152,27.216523 6.6814238,28.10096 13.675464,27.973477 17.349636,26.156258 12.869503,25.210894 5.8284437,19.316192 2.0996358,9.1983113"
     mask="url(#prefix__logo_white-b)"
     id="path28"
     style="fill-rule:evenodd" />
</svg>
