<?xml version="1.0" encoding="UTF-8"?>
<svg xmlns="http://www.w3.org/2000/svg" xmlns:xlink="http://www.w3.org/1999/xlink" width="1625.41pt" height="401.263pt" viewBox="0 0 1625.41 401.263" version="1.1">
<defs>
<clipPath id="clip1">
  <path d="M 64 302 L 137 302 L 137 401.261719 L 64 401.261719 Z M 64 302 "/>
</clipPath>
<clipPath id="clip2">
  <path d="M 564 304 L 639 304 L 639 401.261719 L 564 401.261719 Z M 564 304 "/>
</clipPath>
<clipPath id="clip3">
  <path d="M 1285 302 L 1365 302 L 1365 401.261719 L 1285 401.261719 Z M 1285 302 "/>
</clipPath>
<clipPath id="clip4">
  <path d="M 1547 302 L 1619 302 L 1619 401.261719 L 1547 401.261719 Z M 1547 302 "/>
</clipPath>
<clipPath id="clip5">
  <path d="M 602 245 L 1625.40625 245 L 1625.40625 256 L 602 256 Z M 602 245 "/>
</clipPath>
</defs>
<g id="surface1">
<path style=" stroke:none;fill-rule:nonzero;fill:rgb(100%,100%,100%);fill-opacity:1;" d="M 101.875 180.386719 C 81.414062 173.609375 60.941406 162.253906 47.441406 144.171875 C 46.355469 139.5625 50.921875 136.082031 54.199219 136.082031 C 60.941406 132.835938 70.125 131.515625 77.921875 130.421875 C 85.960938 128.265625 94.882812 128.265625 104.046875 127.125 C 104.046875 145.253906 101.875 162.253906 101.875 180.386719 M 216.171875 53.457031 C 158.441406 13.761719 85.960938 -14.605469 13.519531 8.042969 C 5.632812 10.242188 3.308594 19.433594 0 26.148438 C 3.308594 31.859375 11.355469 30.769531 18.039062 31.859375 C 19.152344 30.769531 24.816406 30.769531 23.710938 27.265625 C 20.238281 22.710938 14.605469 25.074219 11.355469 22.710938 C 12.402344 20.515625 15.710938 20.515625 18.039062 19.433594 C 58.769531 12.429688 99.488281 19.433594 134.558594 32.929688 C 176.535156 49.96875 223.921875 74.808594 242.019531 120.1875 C 247.664062 137.195312 245.507812 158.769531 230.691406 170.125 C 202.402344 192.816406 162.828125 195.199219 127.777344 188.21875 C 126.632812 166.84375 126.632812 149.871094 126.632812 127.125 C 128.855469 124.761719 131.238281 125.828125 134.558594 125.828125 C 153.863281 128.265625 173.066406 129.308594 190.007812 138.519531 C 190.007812 140.640625 187.816406 142.878906 186.738281 144.171875 C 184.335938 148.523438 177.613281 148.523438 178.71875 154.230469 C 182.164062 155.535156 187.816406 156.566406 192.421875 156.566406 C 198.113281 153.125 205.863281 147.453125 208.066406 140.640625 C 209.382812 133.941406 206.949219 128.265625 203.730469 123.667969 C 183.238281 105.5625 154.96875 103.15625 128.855469 104.472656 L 126.632812 103.15625 L 125.578125 76.148438 C 124.5 68.074219 121.039062 60.191406 113.191406 57.804688 C 105.152344 71.554688 106.191406 89.65625 104.046875 106.660156 C 92.730469 108.832031 81.414062 111.253906 70.125 115.84375 C 60.941406 119.113281 52.027344 123.667969 44 131.515625 C 40.722656 134.996094 39.625 139.5625 40.722656 144.171875 C 54.199219 167.929688 79.230469 186.042969 102.960938 197.375 C 104.046875 205.261719 104.046875 214.355469 109.710938 220.046875 C 114.296875 221.140625 118.863281 220.046875 122.113281 220.046875 C 127.777344 217.90625 126.632812 210.933594 127.777344 206.546875 C 167.382812 216.554688 211.585938 213.296875 244.421875 189.535156 C 264.683594 173.609375 274.894531 149.871094 269.21875 123.667969 C 260.316406 96.417969 239.855469 72.605469 216.171875 53.457031 "/>
<path style=" stroke:none;fill-rule:nonzero;fill:rgb(100%,100%,100%);fill-opacity:1;" d="M 292.316406 105.789062 C 288.816406 105.789062 287.796875 109.273438 286.664062 111.460938 C 283.144531 133 283.144531 154.628906 283.144531 177.296875 C 284.257812 185.140625 282.125 196.511719 291.21875 198.691406 C 295.605469 199.988281 301.25 198.691406 304.710938 195.402344 C 305.804688 169.246094 303.632812 144.386719 301.25 119.3125 C 300.132812 113.667969 299.066406 105.789062 292.316406 105.789062 "/>
<path style=" stroke:none;fill-rule:nonzero;fill:rgb(100%,100%,100%);fill-opacity:1;" d="M 291.21875 72.839844 C 299.066406 59.347656 312.554688 45.5625 327.375 41.238281 C 331.980469 41.238281 337.613281 39.914062 339.75 44.480469 C 340.84375 53.6875 334.125 60.390625 327.375 65.007812 C 325.199219 67.167969 321.691406 68.253906 318.230469 69.566406 C 309.324219 72.839844 300.132812 73.917969 291.21875 72.839844 M 274.238281 65.007812 C 271.882812 62.628906 272.980469 58.210938 274.238281 55.867188 C 275.34375 53.6875 277.507812 50.167969 279.902344 47.976562 C 283.144531 44.480469 287.796875 42.308594 291.21875 39.914062 C 293.449219 38.835938 295.605469 38.835938 298.019531 38.835938 C 289.96875 46.917969 280.980469 55.867188 274.238281 65.007812 M 350.035156 54.746094 C 352.171875 47.976562 353.5 38.835938 346.519531 33.140625 C 343.296875 32.050781 339.75 28.589844 335.160156 29.875 L 330.875 24.238281 C 322.777344 18.523438 310.382812 19.632812 299.066406 21.804688 C 288.816406 24.238281 278.625 32.050781 270.777344 39.914062 C 267.304688 43.398438 265.125 47.976562 262.949219 51.257812 C 258.363281 60.390625 260.566406 71.753906 267.304688 78.515625 L 267.304688 88.789062 C 269.671875 93.347656 270.777344 95.542969 274.238281 95.542969 C 277.507812 95.542969 279.902344 88.789062 280.980469 87.691406 C 289.96875 89.867188 299.066406 90.953125 308.230469 88.789062 C 314.988281 86.570312 319.519531 84.203125 325.199219 80.933594 C 335.160156 73.917969 344.355469 65.007812 350.035156 54.746094 "/>
<path style=" stroke:none;fill-rule:nonzero;fill:rgb(100%,100%,100%);fill-opacity:1;" d="M 324.941406 116.894531 C 317.152344 121.5 313.632812 129.308594 313.632812 138.519531 C 314.710938 142.003906 317.152344 146.347656 320.355469 147.660156 C 337.363281 150.921875 355.414062 149.855469 372.402344 153.3125 C 379.414062 155.535156 389.394531 155.535156 391.75 165.773438 C 386.132812 173.609375 371.375 176.035156 360.019531 178.195312 C 349.796875 178.195312 335.179688 182.789062 327.132812 173.609375 C 326.054688 172.53125 326.054688 169.042969 328.429688 167.929688 C 339.75 161.175781 354.375 174.691406 364.605469 173.609375 C 380.5 171.414062 380.5 166.8125 380.5 163.355469 C 376.96875 161.175781 368.046875 157.6875 361.085938 156.578125 C 347.644531 155.535156 333.921875 153.3125 323.914062 161.175781 C 320.355469 164.6875 318.210938 169.042969 319.296875 174.691406 C 323.914062 188.421875 337.363281 195.199219 351.105469 198.667969 C 369.164062 200.894531 389.394531 198.667969 401.835938 184.953125 C 406.394531 178.195312 407.488281 164.6875 404.171875 155.535156 C 389.394531 132.820312 358.914062 143.054688 337.363281 136.316406 C 335.179688 134.996094 330.652344 134.996094 330.652344 132.820312 C 348.671875 124.972656 370.21875 126.039062 389.394531 123.667969 C 396.363281 122.589844 403.105469 122.589844 407.488281 118.003906 C 407.488281 115.816406 409.863281 113.667969 407.488281 111.253906 C 382.652344 100.964844 347.644531 104.472656 324.941406 116.894531 "/>
<path style=" stroke:none;fill-rule:nonzero;fill:rgb(100%,100%,100%);fill-opacity:1;" d="M 463.671875 90.953125 C 461.460938 92.066406 462.546875 95.535156 462.546875 97.707031 C 466.007812 119.3125 474.941406 138.5 474.941406 162.484375 C 473.863281 163.589844 476.035156 166.8125 472.75 166.8125 C 460.363281 149.855469 451.238281 129.558594 434.238281 113.667969 C 430.75 111.460938 427.5 113.667969 426.421875 117.121094 C 419.433594 129.558594 417.25 143.082031 415.085938 157.914062 C 415.085938 169.222656 411.613281 182.789062 416.191406 193.042969 C 418.355469 196.511719 421.855469 199.804688 426.421875 199.804688 C 428.574219 199.804688 430.75 196.511719 432.074219 193.042969 L 435.304688 145.472656 L 436.421875 142.003906 C 447.738281 159 453.402344 179.453125 470.363281 193.042969 C 472.75 195.195312 477.34375 194.105469 479.507812 191.929688 C 488.632812 188.421875 491.910156 178.195312 494.34375 170.328125 C 496.460938 145.472656 490.855469 121.5 477.34375 102.308594 C 473.863281 98.800781 470.363281 92.066406 463.671875 90.953125 "/>
<path style=" stroke:none;fill-rule:nonzero;fill:rgb(100%,100%,100%);fill-opacity:1;" d="M 564.84375 170.34375 C 551.324219 167.929688 537.855469 173.609375 524.132812 174.917969 L 524.132812 173.609375 L 527.605469 160.109375 C 529.757812 152.210938 540.035156 155.507812 545.691406 154.425781 C 552.421875 154.425781 560.5 155.507812 564.84375 150.921875 C 564.84375 147.667969 566.152344 143.066406 563.738281 140.890625 C 555.882812 137.382812 545.691406 138.480469 536.519531 138.480469 L 535.429688 138.480469 L 540.035156 124.972656 L 558.054688 124.972656 C 566.152344 123.914062 575.046875 124.972656 580.738281 120.398438 C 581.835938 112.539062 575.046875 106.855469 568.304688 103.386719 C 549.191406 102.308594 529.757812 106.855469 510.632812 109.058594 C 509.527344 110.140625 505.027344 109.058594 505.027344 111.253906 C 507.160156 120.398438 515.230469 121.5 521.96875 123.914062 L 519.554688 130.675781 C 517.375 133.941406 517.375 140.890625 511.710938 140.890625 C 510.632812 142.007812 506.054688 142.007812 507.160156 145.253906 C 512.804688 157.914062 500.421875 166.84375 501.480469 179.308594 C 502.585938 188.4375 508.21875 197.585938 516.265625 200.855469 C 536.519531 204.355469 553.535156 193.042969 568.304688 181.71875 C 569.394531 178.195312 567.21875 173.609375 564.84375 170.34375 "/>
<path style=" stroke:none;fill-rule:nonzero;fill:rgb(100%,100%,100%);fill-opacity:1;" d="M 647.09375 169.222656 C 639.027344 176.035156 630.105469 180.597656 619.894531 180.597656 C 624.449219 172.53125 630.105469 163.589844 635.757812 154.421875 C 641.421875 147.65625 647.09375 139.804688 654.949219 132.796875 C 658.429688 131.730469 658.429688 136.316406 659.507812 137.421875 C 660.605469 149.828125 656.027344 161.179688 647.09375 169.222656 M 662.757812 118.214844 C 659.507812 114.742188 654.949219 113.667969 650.34375 114.742188 C 637.941406 121.5 627.71875 130.671875 617.515625 142.003906 C 610.757812 149.828125 603.941406 160.109375 597.277344 168.160156 C 596.199219 165.765625 596.199219 163.589844 596.199219 160.109375 C 598.335938 139.804688 618.796875 126.085938 616.410156 105.789062 C 613.152344 104.472656 609.640625 110.140625 607.480469 112.539062 C 591.566406 130.671875 579.210938 151.136719 582.496094 176.035156 C 583.507812 180.597656 585.921875 183.867188 587.027344 188.421875 C 577.894531 207.839844 573.496094 230.539062 568.96875 251.914062 C 568.96875 257.605469 566.554688 264.558594 568.96875 270.230469 C 572.21875 276.996094 580.316406 284.828125 587.027344 283.746094 C 591.566406 256.511719 599.441406 230.539062 607.480469 205.453125 L 620.96875 204.355469 C 643.632812 199.78125 666.21875 178.199219 671.875 154.421875 C 675.394531 140.890625 670.824219 128.472656 662.757812 118.214844 "/>
<g clip-path="url(#clip1)" clip-rule="nonzero">
<path style=" stroke:none;fill-rule:nonzero;fill:rgb(100%,100%,100%);fill-opacity:1;" d="M 78.066406 397.761719 C 73.855469 395.429688 70.585938 392.132812 68.253906 387.878906 C 65.917969 383.621094 64.753906 378.703125 64.753906 373.121094 L 74.636719 373.121094 C 74.636719 378.796875 76.304688 383.394531 79.648438 386.917969 C 82.984375 390.441406 87.402344 392.203125 92.894531 392.203125 L 108.132812 392.203125 C 113.53125 392.203125 117.878906 390.992188 121.171875 388.566406 C 124.46875 386.140625 126.117188 382.960938 126.117188 379.023438 L 126.117188 370.238281 C 126.117188 367.128906 124.902344 364.472656 122.476562 362.277344 C 120.050781 360.078125 116.734375 358.660156 112.523438 358.019531 L 87.816406 353.902344 C 80.859375 352.714844 75.460938 350.242188 71.617188 346.488281 C 67.773438 342.738281 65.851562 338.023438 65.851562 332.347656 L 65.851562 324.9375 C 65.851562 318.257812 68.34375 312.921875 73.332031 308.941406 C 78.320312 304.960938 84.933594 302.972656 93.167969 302.972656 L 108.679688 302.972656 C 116.460938 302.972656 122.730469 305.328125 127.488281 310.039062 C 132.246094 314.753906 134.628906 320.953125 134.628906 328.640625 L 124.742188 328.640625 C 124.742188 323.609375 123.277344 319.582031 120.351562 316.5625 C 117.421875 313.542969 113.53125 312.03125 108.679688 312.03125 L 93.167969 312.03125 C 87.953125 312.03125 83.789062 313.199219 80.675781 315.53125 C 77.5625 317.867188 76.007812 321 76.007812 324.9375 L 76.007812 332.347656 C 76.007812 335.554688 77.175781 338.25 79.507812 340.449219 C 81.84375 342.644531 85.070312 344.109375 89.1875 344.839844 L 113.761719 349.097656 C 120.898438 350.378906 126.433594 352.828125 130.371094 356.441406 C 134.304688 360.058594 136.273438 364.65625 136.273438 370.238281 L 136.273438 379.023438 C 136.273438 385.707031 133.710938 391.082031 128.585938 395.15625 C 123.460938 399.226562 116.734375 401.261719 108.40625 401.261719 L 92.621094 401.261719 C 87.128906 401.261719 82.277344 400.097656 78.066406 397.761719 "/>
</g>
<path style=" stroke:none;fill-rule:nonzero;fill:rgb(100%,100%,100%);fill-opacity:1;" d="M 342.4375 312.855469 L 311.960938 312.855469 L 311.960938 304.070312 L 383.074219 304.070312 L 383.074219 312.855469 L 352.597656 312.855469 L 352.597656 400.164062 L 342.4375 400.164062 Z M 342.4375 312.855469 "/>
<g clip-path="url(#clip2)" clip-rule="nonzero">
<path style=" stroke:none;fill-rule:nonzero;fill:rgb(100%,100%,100%);fill-opacity:1;" d="M 578.660156 397.351562 C 574.175781 394.742188 570.699219 391.035156 568.226562 386.230469 C 565.757812 381.425781 564.523438 375.914062 564.523438 369.6875 L 564.523438 304.070312 L 574.679688 304.070312 L 574.679688 369.964844 C 574.679688 376.644531 576.464844 382.023438 580.035156 386.09375 C 583.605469 390.167969 588.316406 392.203125 594.175781 392.203125 L 609 392.203125 C 614.855469 392.203125 619.570312 390.167969 623.140625 386.09375 C 626.710938 382.023438 628.496094 376.644531 628.496094 369.964844 L 628.496094 304.070312 L 638.652344 304.070312 L 638.652344 369.6875 C 638.652344 375.914062 637.417969 381.425781 634.945312 386.230469 C 632.476562 391.035156 628.996094 394.742188 624.511719 397.351562 C 620.027344 399.957031 614.855469 401.261719 609 401.261719 L 594.175781 401.261719 C 588.316406 401.261719 583.144531 399.957031 578.660156 397.351562 "/>
</g>
<path style=" stroke:none;fill-rule:nonzero;fill:rgb(100%,100%,100%);fill-opacity:1;" d="M 867.050781 391.105469 C 874.828125 391.105469 880.710938 388.976562 884.695312 384.71875 C 888.675781 380.464844 890.664062 374.175781 890.664062 365.84375 L 890.664062 335.644531 C 890.664062 328.964844 888.445312 323.542969 884.007812 319.375 C 879.566406 315.210938 873.734375 313.128906 866.503906 313.128906 L 837.125 313.128906 L 837.125 391.105469 Z M 829.300781 397.832031 C 827.742188 396.277344 826.964844 394.082031 826.964844 391.242188 L 826.964844 304.070312 L 866.777344 304.070312 C 873.550781 304.070312 879.496094 305.375 884.625 307.980469 C 889.75 310.589844 893.730469 314.296875 896.566406 319.101562 C 899.402344 323.90625 900.824219 329.421875 900.824219 335.644531 L 900.824219 365.84375 C 900.824219 377.101562 897.984375 385.636719 892.3125 391.449219 C 886.636719 397.261719 878.308594 400.164062 867.328125 400.164062 L 835.890625 400.164062 C 833.050781 400.164062 830.855469 399.386719 829.300781 397.832031 "/>
<path style=" stroke:none;fill-rule:nonzero;fill:rgb(100%,100%,100%);fill-opacity:1;" d="M 1087.765625 304.070312 L 1097.925781 304.070312 L 1097.925781 400.164062 L 1087.765625 400.164062 Z M 1087.765625 304.070312 "/>
<g clip-path="url(#clip3)" clip-rule="nonzero">
<path style=" stroke:none;fill-rule:nonzero;fill:rgb(100%,100%,100%);fill-opacity:1;" d="M 1331.953125 392.203125 C 1338.632812 392.203125 1344.035156 389.867188 1348.152344 385.199219 C 1352.269531 380.535156 1354.328125 374.402344 1354.328125 366.808594 L 1354.328125 337.429688 C 1354.328125 329.832031 1352.269531 323.699219 1348.152344 319.03125 C 1344.035156 314.363281 1338.632812 312.03125 1331.953125 312.03125 L 1317.949219 312.03125 C 1311.269531 312.03125 1305.871094 314.363281 1301.753906 319.03125 C 1297.632812 323.699219 1295.574219 329.832031 1295.574219 337.429688 L 1295.574219 366.808594 C 1295.574219 374.402344 1297.609375 380.535156 1301.683594 385.199219 C 1305.753906 389.867188 1311.132812 392.203125 1317.8125 392.203125 Z M 1300.789062 397.007812 C 1295.9375 394.171875 1292.164062 390.144531 1289.464844 384.925781 C 1286.765625 379.710938 1285.414062 373.667969 1285.414062 366.808594 L 1285.414062 337.429688 C 1285.414062 330.5625 1286.765625 324.523438 1289.464844 319.308594 C 1292.164062 314.089844 1295.9375 310.066406 1300.789062 307.226562 C 1305.640625 304.390625 1311.269531 302.972656 1317.675781 302.972656 L 1332.226562 302.972656 C 1338.632812 302.972656 1344.261719 304.390625 1349.113281 307.226562 C 1353.964844 310.066406 1357.738281 314.089844 1360.4375 319.308594 C 1363.136719 324.523438 1364.488281 330.5625 1364.488281 337.429688 L 1364.488281 366.808594 C 1364.488281 373.667969 1363.136719 379.6875 1360.4375 384.859375 C 1357.738281 390.03125 1353.9375 394.054688 1349.046875 396.9375 C 1344.148438 399.820312 1338.542969 401.265625 1332.226562 401.265625 L 1317.539062 401.265625 C 1311.222656 401.265625 1305.640625 399.84375 1300.789062 397.007812 "/>
</g>
<g clip-path="url(#clip4)" clip-rule="nonzero">
<path style=" stroke:none;fill-rule:nonzero;fill:rgb(100%,100%,100%);fill-opacity:1;" d="M 1560.628906 397.761719 C 1556.417969 395.429688 1553.148438 392.132812 1550.8125 387.878906 C 1548.480469 383.621094 1547.3125 378.703125 1547.3125 373.121094 L 1557.195312 373.121094 C 1557.195312 378.796875 1558.867188 383.394531 1562.207031 386.917969 C 1565.546875 390.441406 1569.964844 392.203125 1575.453125 392.203125 L 1590.691406 392.203125 C 1596.09375 392.203125 1600.441406 390.992188 1603.734375 388.566406 C 1607.027344 386.140625 1608.675781 382.960938 1608.675781 379.023438 L 1608.675781 370.238281 C 1608.675781 367.128906 1607.460938 364.472656 1605.039062 362.277344 C 1602.613281 360.078125 1599.292969 358.660156 1595.085938 358.019531 L 1570.375 353.902344 C 1563.417969 352.714844 1558.019531 350.242188 1554.175781 346.488281 C 1550.332031 342.738281 1548.410156 338.023438 1548.410156 332.347656 L 1548.410156 324.9375 C 1548.410156 318.257812 1550.902344 312.921875 1555.894531 308.941406 C 1560.878906 304.960938 1567.492188 302.972656 1575.730469 302.972656 L 1591.242188 302.972656 C 1599.019531 302.972656 1605.289062 305.328125 1610.050781 310.039062 C 1614.808594 314.753906 1617.1875 320.953125 1617.1875 328.640625 L 1607.304688 328.640625 C 1607.304688 323.609375 1605.839844 319.582031 1602.910156 316.5625 C 1599.980469 313.542969 1596.09375 312.03125 1591.242188 312.03125 L 1575.730469 312.03125 C 1570.515625 312.03125 1566.347656 313.199219 1563.238281 315.53125 C 1560.125 317.867188 1558.570312 321 1558.570312 324.9375 L 1558.570312 332.347656 C 1558.570312 335.554688 1559.738281 338.25 1562.070312 340.449219 C 1564.402344 342.644531 1567.628906 344.109375 1571.746094 344.839844 L 1596.320312 349.097656 C 1603.460938 350.378906 1608.996094 352.828125 1612.933594 356.441406 C 1616.867188 360.058594 1618.835938 364.65625 1618.835938 370.238281 L 1618.835938 379.023438 C 1618.835938 385.707031 1616.273438 391.082031 1611.148438 395.15625 C 1606.023438 399.226562 1599.292969 401.261719 1590.96875 401.261719 L 1575.179688 401.261719 C 1569.691406 401.261719 1564.835938 400.097656 1560.628906 397.761719 "/>
</g>
<g clip-path="url(#clip5)" clip-rule="nonzero">
<path style=" stroke:none;fill-rule:nonzero;fill:rgb(100%,100%,100%);fill-opacity:1;" d="M 604.820312 245.996094 C 603.996094 249.027344 603.199219 252.078125 602.425781 255.148438 L 1625.40625 255.148438 L 1625.40625 245.996094 Z M 604.820312 245.996094 "/>
</g>
<path style=" stroke:none;fill-rule:nonzero;fill:rgb(100%,100%,100%);fill-opacity:1;" d="M 559.816406 251.914062 L 559.816406 250.957031 L 560.015625 250.019531 C 560.300781 248.683594 560.582031 247.339844 560.863281 245.996094 L 72.320312 245.996094 L 72.320312 255.148438 L 559.558594 255.148438 C 559.707031 253.941406 559.816406 252.820312 559.816406 251.914062 "/>
<path style=" stroke:none;fill-rule:nonzero;fill:rgb(100%,100%,100%);fill-opacity:1;" d="M 747.867188 163.40625 C 769.363281 163.40625 781.550781 153.929688 781.550781 135.480469 C 781.550781 117.542969 769.363281 108.398438 747.867188 108.398438 L 716.386719 108.398438 L 716.386719 163.40625 Z M 755.824219 176.101562 C 753.285156 176.269531 750.578125 176.441406 747.867188 176.441406 L 716.386719 176.441406 L 716.386719 213.84375 L 702.847656 213.84375 L 702.847656 95.371094 L 747.867188 95.371094 C 777.488281 95.371094 794.582031 109.925781 794.582031 135.144531 C 794.582031 154.777344 785.101562 167.976562 768.011719 173.5625 L 795.769531 213.84375 L 780.367188 213.84375 Z M 755.824219 176.101562 "/>
<path style=" stroke:none;fill-rule:nonzero;fill:rgb(100%,100%,100%);fill-opacity:1;" d="M 838.753906 108.402344 L 838.753906 147.328125 L 898.5 147.328125 L 898.5 160.363281 L 838.753906 160.363281 L 838.753906 200.980469 L 907.808594 200.980469 L 907.808594 213.84375 L 825.214844 213.84375 L 825.214844 95.371094 L 905.609375 95.371094 L 905.609375 108.402344 Z M 838.753906 108.402344 "/>
<path style=" stroke:none;fill-rule:nonzero;fill:rgb(100%,100%,100%);fill-opacity:1;" d="M 1008.171875 105.863281 L 1002.417969 118.558594 C 991.753906 111.449219 979.230469 108.570312 969.75 108.570312 C 954.519531 108.570312 944.535156 114.324219 944.535156 124.3125 C 944.535156 154.777344 1011.21875 138.867188 1011.050781 181.855469 C 1011.050781 201.660156 993.617188 214.351562 968.230469 214.351562 C 950.964844 214.351562 934.039062 206.90625 922.867188 196.242188 L 928.960938 184.058594 C 939.964844 194.71875 955.027344 200.8125 968.398438 200.8125 C 985.492188 200.8125 996.152344 193.875 996.152344 182.535156 C 996.324219 151.390625 929.640625 167.976562 929.640625 125.496094 C 929.640625 106.878906 946.058594 94.863281 970.597656 94.863281 C 984.308594 94.863281 998.355469 99.261719 1008.171875 105.863281 "/>
<path style=" stroke:none;fill-rule:nonzero;fill:rgb(100%,100%,100%);fill-opacity:1;" d="M 1052.34375 108.402344 L 1052.34375 147.328125 L 1112.089844 147.328125 L 1112.089844 160.363281 L 1052.34375 160.363281 L 1052.34375 200.980469 L 1121.398438 200.980469 L 1121.398438 213.84375 L 1038.804688 213.84375 L 1038.804688 95.371094 L 1119.199219 95.371094 L 1119.199219 108.402344 Z M 1052.34375 108.402344 "/>
<path style=" stroke:none;fill-rule:nonzero;fill:rgb(100%,100%,100%);fill-opacity:1;" d="M 1191.464844 110.769531 L 1165.066406 170.855469 L 1218.207031 170.855469 Z M 1159.308594 183.886719 L 1146.105469 213.84375 L 1131.722656 213.84375 L 1184.867188 95.371094 L 1198.914062 95.371094 L 1251.890625 213.84375 L 1237.164062 213.84375 L 1223.964844 183.886719 Z M 1159.308594 183.886719 "/>
<path style=" stroke:none;fill-rule:nonzero;fill:rgb(100%,100%,100%);fill-opacity:1;" d="M 1315.523438 163.40625 C 1337.019531 163.40625 1349.207031 153.929688 1349.207031 135.480469 C 1349.207031 117.542969 1337.019531 108.398438 1315.523438 108.398438 L 1284.042969 108.398438 L 1284.042969 163.40625 Z M 1323.480469 176.101562 C 1320.941406 176.269531 1318.234375 176.441406 1315.523438 176.441406 L 1284.042969 176.441406 L 1284.042969 213.84375 L 1270.503906 213.84375 L 1270.503906 95.371094 L 1315.523438 95.371094 C 1345.144531 95.371094 1362.238281 109.925781 1362.238281 135.144531 C 1362.238281 154.777344 1352.757812 167.976562 1335.667969 173.5625 L 1363.421875 213.84375 L 1348.019531 213.84375 Z M 1323.480469 176.101562 "/>
<path style=" stroke:none;fill-rule:nonzero;fill:rgb(100%,100%,100%);fill-opacity:1;" d="M 1486.804688 112.292969 L 1478.679688 122.617188 C 1469.542969 113.308594 1456.679688 107.726562 1443.644531 107.726562 C 1416.902344 107.726562 1395.410156 128.375 1395.410156 154.4375 C 1395.410156 180.332031 1416.902344 201.152344 1443.644531 201.152344 C 1456.679688 201.152344 1469.371094 195.734375 1478.679688 186.933594 L 1486.972656 196.242188 C 1475.292969 207.242188 1459.386719 214.523438 1442.96875 214.523438 C 1408.78125 214.523438 1381.699219 187.949219 1381.699219 154.4375 C 1381.699219 121.265625 1409.117188 95.03125 1443.476562 95.03125 C 1459.722656 95.03125 1475.464844 101.632812 1486.804688 112.292969 "/>
<path style=" stroke:none;fill-rule:nonzero;fill:rgb(100%,100%,100%);fill-opacity:1;" d="M 1596.308594 213.84375 L 1596.308594 161.714844 L 1524.882812 161.714844 L 1524.882812 213.84375 L 1511.34375 213.84375 L 1511.34375 95.371094 L 1524.882812 95.371094 L 1524.882812 148.851562 L 1596.308594 148.851562 L 1596.308594 95.371094 L 1609.847656 95.371094 L 1609.847656 213.84375 Z M 1596.308594 213.84375 "/>
</g>
</svg>
