<svg version="1.1" viewBox="0.0 0.0 187.40682414698162 361.74015748031496" fill="none" stroke="none" stroke-linecap="square" stroke-miterlimit="10" xmlns:xlink="http://www.w3.org/1999/xlink" xmlns="http://www.w3.org/2000/svg"><clipPath id="p.0"><path d="m0 0l187.40683 0l0 361.74014l-187.40683 0l0 -361.74014z" clip-rule="nonzero"/></clipPath><g clip-path="url(#p.0)"><path fill="#000000" fill-opacity="0.0" d="m0 0l187.40683 0l0 361.74014l-187.40683 0z" fill-rule="evenodd"/><g filter="url(#shadowFilter-p.1)"><use xlink:href="#p.1" transform="matrix(1.0 0.0 0.0 1.0 0.0 2.0)"/></g><defs><filter id="shadowFilter-p.1" filterUnits="userSpaceOnUse"><feGaussianBlur in="SourceAlpha" stdDeviation="2.0" result="blur"/><feComponentTransfer in="blur" color-interpolation-filters="sRGB"><feFuncR type="linear" slope="0" intercept="0.0"/><feFuncG type="linear" slope="0" intercept="0.0"/><feFuncB type="linear" slope="0" intercept="0.0"/><feFuncA type="linear" slope="0.5" intercept="0"/></feComponentTransfer></filter></defs><g id="p.1"><path fill="#ffffff" d="m12.31659 268.64777l152.60341 0l13.53833 13.53833l0 67.69l-166.14174 0z" fill-rule="evenodd"/><path stroke="#000000" stroke-width="1.0" stroke-linejoin="round" stroke-linecap="butt" d="m12.31659 268.64777l152.60341 0l13.53833 13.53833l0 67.69l-166.14174 0z" fill-rule="evenodd"/></g><g filter="url(#shadowFilter-p.2)"><use xlink:href="#p.2" transform="matrix(1.0 0.0 0.0 1.0 0.0 2.0)"/></g><defs><filter id="shadowFilter-p.2" filterUnits="userSpaceOnUse"><feGaussianBlur in="SourceAlpha" stdDeviation="2.0" result="blur"/><feComponentTransfer in="blur" color-interpolation-filters="sRGB"><feFuncR type="linear" slope="0" intercept="0.0"/><feFuncG type="linear" slope="0" intercept="0.0"/><feFuncB type="linear" slope="0" intercept="0.0"/><feFuncA type="linear" slope="0.5" intercept="0"/></feComponentTransfer></filter></defs><g id="p.2"><path fill="#ffffff" d="m70.45701 263.25143l14.0 0l0 -59.338577l28.0 0l0 59.338577l14.0 0l-28.0 28.0z" fill-rule="evenodd"/><path stroke="#000000" stroke-width="1.0" stroke-linejoin="round" stroke-linecap="butt" d="m70.45701 263.25143l14.0 0l0 -59.338577l28.0 0l0 59.338577l14.0 0l-28.0 28.0z" fill-rule="evenodd"/></g><g filter="url(#shadowFilter-p.3)"><use xlink:href="#p.3" transform="matrix(1.0 0.0 0.0 1.0 0.0 2.0)"/></g><defs><filter id="shadowFilter-p.3" filterUnits="userSpaceOnUse"><feGaussianBlur in="SourceAlpha" stdDeviation="2.0" result="blur"/><feComponentTransfer in="blur" color-interpolation-filters="sRGB"><feFuncR type="linear" slope="0" intercept="0.0"/><feFuncG type="linear" slope="0" intercept="0.0"/><feFuncB type="linear" slope="0" intercept="0.0"/><feFuncA type="linear" slope="0.5" intercept="0"/></feComponentTransfer></filter></defs><g id="p.3"><path fill="#ffffff" d="m178.16304 12.839363l0 0c0 3.5050507 -2.8414001 6.3464565 -6.346451 6.3464565l0 -6.3464565l0 0c0 1.7525253 -1.4207001 3.1732292 -3.173233 3.1732292c-1.7525177 0 -3.1732178 -1.4207039 -3.1732178 -3.1732292l0 6.3464565l-150.81891 0l0 0c-3.5050507 0 -6.3464565 2.8414059 -6.3464565 6.3464565l0 76.157486c0 3.5050507 2.8414059 6.3464584 6.3464565 6.3464584c3.5050507 0 6.3464565 -2.8414078 6.3464565 -6.3464584l0 -6.3464584l150.8189 0c3.5050507 0 6.346451 -2.8414078 6.346451 -6.3464584zm-163.51181 19.03937c3.5050507 0 6.3464565 -2.841404 6.3464565 -6.3464565c0 -1.7525253 -1.420702 -3.1732273 -3.1732273 -3.1732273c-1.7525272 0 -3.1732292 1.420702 -3.1732292 3.1732273z" fill-rule="evenodd"/><path fill="#cbcbcb" d="m14.651236 31.878733c3.5050507 0 6.3464565 -2.841404 6.3464565 -6.3464565c0 -1.7525253 -1.420702 -3.1732273 -3.1732273 -3.1732273c-1.7525272 0 -3.1732292 1.420702 -3.1732292 3.1732273zm157.16536 -12.692913c3.5050507 0 6.346451 -2.8414059 6.346451 -6.3464565c0 -3.5050507 -2.8414001 -6.3464565 -6.346451 -6.3464565c-3.5050507 0 -6.346451 2.8414059 -6.346451 6.3464565c0 1.7525253 1.4207001 3.1732292 3.1732178 3.1732292c1.752533 0 3.173233 -1.4207039 3.173233 -3.1732292z" fill-rule="evenodd"/><path fill="#000000" fill-opacity="0.0" d="m8.304779 25.532276c0 -3.5050507 2.8414059 -6.3464565 6.3464565 -6.3464565l150.81891 0l0 -6.3464565l0 0c0 -3.5050507 2.8414001 -6.3464565 6.346451 -6.3464565c3.5050507 0 6.346451 2.8414059 6.346451 6.3464565l0 76.15748c0 3.5050507 -2.8414001 6.3464584 -6.346451 6.3464584l-150.8189 0l0 6.3464584c0 3.5050507 -2.8414059 6.3464584 -6.3464565 6.3464584c-3.5050507 0 -6.3464565 -2.8414078 -6.3464565 -6.3464584zm157.16536 -6.3464565l6.346451 0c3.5050507 0 6.346451 -2.8414059 6.346451 -6.3464565m-6.346451 6.3464565l0 -6.3464565l0 0c0 1.7525253 -1.4207001 3.1732292 -3.173233 3.1732292c-1.7525177 0 -3.1732178 -1.4207039 -3.1732178 -3.1732292m-150.81891 19.03937l0 -6.3464565l0 0c0 -1.7525253 1.420702 -3.1732273 3.1732292 -3.1732273c1.7525253 0 3.1732273 1.420702 3.1732273 3.1732273c0 3.5050526 -2.8414059 6.3464565 -6.3464565 6.3464565c-3.5050507 0 -6.3464565 -2.841404 -6.3464565 -6.3464565m12.692913 0l0 69.81102" fill-rule="evenodd"/><path stroke="#000000" stroke-width="1.0" stroke-linejoin="round" stroke-linecap="butt" d="m8.304779 25.532276c0 -3.5050507 2.8414059 -6.3464565 6.3464565 -6.3464565l150.81891 0l0 -6.3464565l0 0c0 -3.5050507 2.8414001 -6.3464565 6.346451 -6.3464565c3.5050507 0 6.346451 2.8414059 6.346451 6.3464565l0 76.15748c0 3.5050507 -2.8414001 6.3464584 -6.346451 6.3464584l-150.8189 0l0 6.3464584c0 3.5050507 -2.8414059 6.3464584 -6.3464565 6.3464584c-3.5050507 0 -6.3464565 -2.8414078 -6.3464565 -6.3464584zm157.16536 -6.3464565l6.346451 0c3.5050507 0 6.346451 -2.8414059 6.346451 -6.3464565m-6.346451 6.3464565l0 -6.3464565l0 0c0 1.7525253 -1.4207001 3.1732292 -3.173233 3.1732292c-1.7525177 0 -3.1732178 -1.4207039 -3.1732178 -3.1732292m-150.81891 19.03937l0 -6.3464565l0 0c0 -1.7525253 1.420702 -3.1732273 3.1732292 -3.1732273c1.7525253 0 3.1732273 1.420702 3.1732273 3.1732273c0 3.5050526 -2.8414059 6.3464565 -6.3464565 6.3464565c-3.5050507 0 -6.3464565 -2.841404 -6.3464565 -6.3464565m12.692913 0l0 69.81102" fill-rule="evenodd"/></g><g filter="url(#shadowFilter-p.4)"><use xlink:href="#p.4" transform="matrix(1.0 0.0 0.0 1.0 0.0 2.0)"/></g><defs><filter id="shadowFilter-p.4" filterUnits="userSpaceOnUse"><feGaussianBlur in="SourceAlpha" stdDeviation="2.0" result="blur"/><feComponentTransfer in="blur" color-interpolation-filters="sRGB"><feFuncR type="linear" slope="0" intercept="0.0"/><feFuncG type="linear" slope="0" intercept="0.0"/><feFuncB type="linear" slope="0" intercept="0.0"/><feFuncA type="linear" slope="0.5" intercept="0"/></feComponentTransfer></filter></defs><g id="p.4"><path fill="#000000" fill-opacity="0.0" d="m36.611866 34.63464l127.40158 0l0 45.25984l-127.40158 0z" fill-rule="evenodd"/><path fill="#000000" d="m46.643116 56.67714q0 -3.796875 2.03125 -5.9375q2.046875 -2.15625 5.28125 -2.15625q2.109375 0 3.796875 1.015625q1.703125 1.0 2.59375 2.8125q0.890625 1.796875 0.890625 4.09375q0 2.3125 -0.9375 4.15625q-0.9375 1.828125 -2.65625 2.78125q-1.703125 0.9375 -3.703125 0.9375q-2.15625 0 -3.859375 -1.046875q-1.6875 -1.046875 -2.5625 -2.84375q-0.875 -1.796875 -0.875 -3.8125zm2.078125 0.03125q0 2.765625 1.484375 4.359375q1.484375 1.578125 3.734375 1.578125q2.28125 0 3.75 -1.59375q1.46875 -1.609375 1.46875 -4.5625q0 -1.859375 -0.640625 -3.25q-0.625 -1.390625 -1.84375 -2.15625q-1.203125 -0.765625 -2.703125 -0.765625q-2.15625 0 -3.703125 1.484375q-1.546875 1.46875 -1.546875 4.90625zm14.886581 11.640625l0 -15.296875l1.7031212 0l0 1.4375q0.609375 -0.84375 1.359375 -1.265625q0.765625 -0.421875 1.859375 -0.421875q1.40625 0 2.484375 0.734375q1.09375 0.71875 1.640625 2.046875q0.546875 1.328125 0.546875 2.921875q0 1.6875 -0.609375 3.046875q-0.59375 1.359375 -1.765625 2.09375q-1.15625 0.71875 -2.4375 0.71875q-0.9375 0 -1.6875 -0.390625q-0.734375 -0.40625 -1.21875 -1.0l0 5.375l-1.8749962 0zm1.7031212 -9.703125q0 2.140625 0.859375 3.15625q0.859375 1.015625 2.09375 1.015625q1.25 0 2.140625 -1.046875q0.890625 -1.0625 0.890625 -3.28125q0 -2.109375 -0.875 -3.15625q-0.859375 -1.0625 -2.078125 -1.0625q-1.1875 0 -2.109375 1.125q-0.921875 1.109375 -0.921875 3.25zm17.736694 1.90625l1.921875 0.234375q-0.453125 1.703125 -1.6875 2.640625q-1.234375 0.9375 -3.171875 0.9375q-2.421875 0 -3.84375 -1.484375q-1.421875 -1.5 -1.421875 -4.203125q0 -2.796875 1.4375 -4.328125q1.4375 -1.546875 3.734375 -1.546875q2.21875 0 3.609375 1.515625q1.40625 1.5 1.40625 4.25q0 0.15625 0 0.5l-8.25 0q0.109375 1.8125 1.03125 2.78125q0.921875 0.96875 2.3125 0.96875q1.03125 0 1.75 -0.53125q0.734375 -0.546875 1.171875 -1.734375zm-6.15625 -3.03125l6.171875 0q-0.125 -1.390625 -0.703125 -2.09375q-0.90625 -1.078125 -2.328125 -1.078125q-1.296875 0 -2.171875 0.859375q-0.875 0.859375 -0.96875 2.3125zm10.439819 6.59375l0 -11.0625l1.6875 0l0 1.578125q1.21875 -1.828125 3.515625 -1.828125q1.0 0 1.84375 0.359375q0.84375 0.359375 1.25 0.953125q0.421875 0.578125 0.59375 1.375q0.09375 0.515625 0.09375 1.828125l0 6.796875l-1.875 0l0 -6.734375q0 -1.140625 -0.21875 -1.703125q-0.21875 -0.578125 -0.78125 -0.90625q-0.546875 -0.34375 -1.296875 -0.34375q-1.203125 0 -2.078125 0.765625q-0.859375 0.75 -0.859375 2.875l0 6.046875l-1.875 0zm12.142944 0l0 -15.265625l11.03125 0l0 1.796875l-9.015625 0l0 4.671875l8.453125 0l0 1.796875l-8.453125 0l0 5.203125l9.375 0l0 1.796875l-11.390625 0zm12.631943 0l5.90625 -7.953125l-5.203125 -7.3125l2.40625 0l2.765625 3.921875q0.859375 1.203125 1.234375 1.859375q0.5 -0.828125 1.203125 -1.734375l3.0625 -4.046875l2.203125 0l-5.359375 7.1875l5.78125 8.078125l-2.5 0l-3.84375 -5.453125q-0.328125 -0.46875 -0.671875 -1.015625q-0.5 0.828125 -0.71875 1.140625l-3.84375 5.328125l-2.421875 0zm15.803818 0l0 -15.265625l6.78125 0q2.03125 0 3.09375 0.421875q1.0625 0.40625 1.6875 1.453125q0.640625 1.03125 0.640625 2.296875q0 1.609375 -1.046875 2.734375q-1.046875 1.109375 -3.25 1.40625q0.8125 0.390625 1.21875 0.765625q0.890625 0.8125 1.671875 2.03125l2.65625 4.15625l-2.53125 0l-2.015625 -3.171875q-0.890625 -1.375 -1.46875 -2.109375q-0.5625 -0.734375 -1.015625 -1.015625q-0.453125 -0.296875 -0.921875 -0.40625q-0.34375 -0.078125 -1.125 -0.078125l-2.34375 0l0 6.78125l-2.03125 0zm2.03125 -8.53125l4.34375 0q1.375 0 2.15625 -0.28125q0.78125 -0.296875 1.1875 -0.921875q0.40625 -0.625 0.40625 -1.359375q0 -1.09375 -0.78125 -1.78125q-0.78125 -0.703125 -2.484375 -0.703125l-4.828125 0l0 5.046875z" fill-rule="nonzero"/></g><g filter="url(#shadowFilter-p.5)"><use xlink:href="#p.5" transform="matrix(1.0 0.0 0.0 1.0 0.0 2.0)"/></g><defs><filter id="shadowFilter-p.5" filterUnits="userSpaceOnUse"><feGaussianBlur in="SourceAlpha" stdDeviation="2.0" result="blur"/><feComponentTransfer in="blur" color-interpolation-filters="sRGB"><feFuncR type="linear" slope="0" intercept="0.0"/><feFuncG type="linear" slope="0" intercept="0.0"/><feFuncB type="linear" slope="0" intercept="0.0"/><feFuncA type="linear" slope="0.5" intercept="0"/></feComponentTransfer></filter></defs><g id="p.5"><path fill="#ffffff" d="m35.689194 168.40242l17.605991 -8.340378l6.7254105 -13.494263l21.7627 -3.8146973E-4l17.606789 -8.339584l17.606789 8.339584l21.762695 3.8146973E-4l6.725403 13.494263l17.606003 8.340378l-6.7246857 13.49469l6.7246857 13.494675l-17.606003 8.340378l-6.725403 13.494278l-21.762695 3.8146973E-4l-17.606789 8.339569l-17.606789 -8.339569l-21.7627 -3.8146973E-4l-6.7254105 -13.494278l-17.605991 -8.340378l6.724674 -13.494675z" fill-rule="evenodd"/><path stroke="#000000" stroke-width="1.0" stroke-linejoin="round" stroke-linecap="butt" d="m35.689194 168.40242l17.605991 -8.340378l6.7254105 -13.494263l21.7627 -3.8146973E-4l17.606789 -8.339584l17.606789 8.339584l21.762695 3.8146973E-4l6.725403 13.494263l17.606003 8.340378l-6.7246857 13.49469l6.7246857 13.494675l-17.606003 8.340378l-6.725403 13.494278l-21.762695 3.8146973E-4l-17.606789 8.339569l-17.606789 -8.339569l-21.7627 -3.8146973E-4l-6.7254105 -13.494278l-17.605991 -8.340378l6.724674 -13.494675z" fill-rule="evenodd"/></g><g filter="url(#shadowFilter-p.6)"><use xlink:href="#p.6" transform="matrix(1.0 0.0 0.0 1.0 0.0 2.0)"/></g><defs><filter id="shadowFilter-p.6" filterUnits="userSpaceOnUse"><feGaussianBlur in="SourceAlpha" stdDeviation="2.0" result="blur"/><feComponentTransfer in="blur" color-interpolation-filters="sRGB"><feFuncR type="linear" slope="0" intercept="0.0"/><feFuncG type="linear" slope="0" intercept="0.0"/><feFuncB type="linear" slope="0" intercept="0.0"/><feFuncA type="linear" slope="0.5" intercept="0"/></feComponentTransfer></filter></defs><g id="p.6"><path fill="#000000" fill-opacity="0.0" d="m37.53545 158.6518l127.40158 0l0 45.259842l-127.40158 0z" fill-rule="evenodd"/><path fill="#000000" d="m48.22295 188.1318l0 -15.265625l11.03125 0l0 1.796875l-9.015625 0l0 4.671875l8.453125 0l0 1.796875l-8.453125 0l0 5.203125l9.375 0l0 1.796875l-11.390625 0zm13.944443 0l0 -11.0625l1.671875 0l0 1.546875q0.5312462 -0.8125 1.3906212 -1.296875q0.859375 -0.5 1.96875 -0.5q1.234375 0 2.015625 0.515625q0.78125 0.5 1.109375 1.421875q1.3125 -1.9375 3.40625 -1.9375q1.65625 0 2.53125 0.921875q0.890625 0.90625 0.890625 2.796875l0 7.59375l-1.859375 0l0 -6.96875q0 -1.125 -0.1875 -1.609375q-0.1875 -0.5 -0.671875 -0.796875q-0.46875 -0.3125 -1.109375 -0.3125q-1.171875 0 -1.9375 0.78125q-0.765625 0.765625 -0.765625 2.484375l0 6.421875l-1.875 0l0 -7.1875q0 -1.25 -0.46875 -1.875q-0.453125 -0.625 -1.5 -0.625q-0.78125 0 -1.453125 0.421875q-0.671875 0.40625 -0.984375 1.21875q-0.296875 0.796875 -0.296875 2.3125l0 5.734375l-1.8749962 0zm17.01649 -3.296875l1.859375 -0.296875q0.15625 1.109375 0.859375 1.703125q0.71875 0.59375 2.0 0.59375q1.296875 0 1.921875 -0.515625q0.625 -0.53125 0.625 -1.234375q0 -0.640625 -0.5625 -1.0q-0.375 -0.25 -1.90625 -0.640625q-2.0625 -0.515625 -2.859375 -0.890625q-0.796875 -0.390625 -1.21875 -1.0625q-0.40625 -0.671875 -0.40625 -1.484375q0 -0.734375 0.328125 -1.359375q0.34375 -0.640625 0.9375 -1.0625q0.4375 -0.3125 1.1875 -0.53125q0.75 -0.234375 1.625 -0.234375q1.296875 0 2.28125 0.375q0.984375 0.375 1.453125 1.015625q0.46875 0.640625 0.640625 1.71875l-1.828125 0.25q-0.125 -0.859375 -0.734375 -1.328125q-0.59375 -0.484375 -1.6875 -0.484375q-1.28125 0 -1.84375 0.421875q-0.546875 0.421875 -0.546875 1.0q0 0.359375 0.234375 0.65625q0.21875 0.296875 0.71875 0.5q0.28125 0.109375 1.65625 0.484375q1.984375 0.53125 2.765625 0.875q0.796875 0.328125 1.234375 0.984375q0.453125 0.640625 0.453125 1.59375q0 0.9375 -0.546875 1.765625q-0.546875 0.828125 -1.578125 1.28125q-1.03125 0.453125 -2.328125 0.453125q-2.15625 0 -3.296875 -0.890625q-1.125 -0.90625 -1.4375 -2.65625zm18.632812 -0.75l1.84375 0.234375q-0.296875 1.90625 -1.546875 2.984375q-1.25 1.078125 -3.0625 1.078125q-2.265625 0 -3.65625 -1.484375q-1.375 -1.484375 -1.375 -4.25q0 -1.796875 0.59375 -3.140625q0.59375 -1.34375 1.8125 -2.015625q1.21875 -0.671875 2.640625 -0.671875q1.796875 0 2.9375 0.921875q1.15625 0.90625 1.484375 2.578125l-1.828125 0.28125q-0.265625 -1.109375 -0.921875 -1.671875q-0.65625 -0.5625 -1.59375 -0.5625q-1.421875 0 -2.3125 1.015625q-0.875 1.015625 -0.875 3.203125q0 2.234375 0.84375 3.25q0.859375 1.0 2.234375 1.0q1.109375 0 1.84375 -0.671875q0.734375 -0.671875 0.9375 -2.078125zm3.4296875 4.046875l0 -11.0625l1.6875 0l0 1.671875q0.640625 -1.171875 1.1875 -1.546875q0.546875 -0.375 1.203125 -0.375q0.953125 0 1.921875 0.609375l-0.640625 1.734375q-0.6875 -0.40625 -1.375 -0.40625q-0.609375 0 -1.109375 0.375q-0.484375 0.359375 -0.6875 1.015625q-0.3125 1.0 -0.3125 2.1875l0 5.796875l-1.875 0zm7.1336823 -13.109375l0 -2.15625l1.875 0l0 2.15625l-1.875 0zm0 13.109375l0 -11.0625l1.875 0l0 11.0625l-1.875 0zm4.722809 4.234375l0 -15.296875l1.703125 0l0 1.4375q0.609375 -0.84375 1.359375 -1.265625q0.765625 -0.421875 1.859375 -0.421875q1.40625 0 2.484375 0.734375q1.09375 0.71875 1.640625 2.046875q0.546875 1.328125 0.546875 2.921875q0 1.6875 -0.609375 3.046875q-0.59375 1.359375 -1.765625 2.09375q-1.15625 0.71875 -2.4375 0.71875q-0.9375 0 -1.6875 -0.390625q-0.734375 -0.40625 -1.21875 -1.0l0 5.375l-1.875 0zm1.703125 -9.703125q0 2.140625 0.859375 3.15625q0.859375 1.015625 2.09375 1.015625q1.25 0 2.140625 -1.046875q0.890625 -1.0625 0.890625 -3.28125q0 -2.109375 -0.875 -3.15625q-0.859375 -1.0625 -2.078125 -1.0625q-1.1875 0 -2.109375 1.125q-0.921875 1.109375 -0.921875 3.25zm14.252319 3.796875l0.265625 1.65625q-0.78125 0.15625 -1.40625 0.15625q-1.03125 0 -1.59375 -0.3125q-0.5625 -0.328125 -0.796875 -0.84375q-0.21875 -0.53125 -0.21875 -2.21875l0 -6.375l-1.375 0l0 -1.453125l1.375 0l0 -2.734375l1.859375 -1.125l0 3.859375l1.890625 0l0 1.453125l-1.890625 0l0 6.46875q0 0.8125 0.09375 1.046875q0.109375 0.21875 0.328125 0.359375q0.234375 0.125 0.640625 0.125q0.3125 0 0.828125 -0.0625zm9.410019 -1.890625l1.921875 0.234375q-0.453125 1.703125 -1.6875 2.640625q-1.234375 0.9375 -3.171875 0.9375q-2.421875 0 -3.84375 -1.484375q-1.421875 -1.5 -1.421875 -4.203125q0 -2.796875 1.4375 -4.328125q1.4375 -1.546875 3.734375 -1.546875q2.21875 0 3.609375 1.515625q1.40625 1.5 1.40625 4.25q0 0.15625 0 0.5l-8.25 0q0.109375 1.8125 1.03125 2.78125q0.921875 0.96875 2.3125 0.96875q1.03125 0 1.75 -0.53125q0.734375 -0.546875 1.171875 -1.734375zm-6.15625 -3.03125l6.171875 0q-0.125 -1.390625 -0.703125 -2.09375q-0.90625 -1.078125 -2.328125 -1.078125q-1.296875 0 -2.171875 0.859375q-0.875 0.859375 -0.96875 2.3125zm10.439819 6.59375l0 -11.0625l1.6875 0l0 1.578125q1.21875 -1.828125 3.515625 -1.828125q1.0 0 1.84375 0.359375q0.84375 0.359375 1.25 0.953125q0.421875 0.578125 0.59375 1.375q0.09375 0.515625 0.09375 1.828125l0 6.796875l-1.875 0l0 -6.734375q0 -1.140625 -0.21875 -1.703125q-0.21875 -0.578125 -0.78125 -0.90625q-0.546875 -0.34375 -1.296875 -0.34375q-1.203125 0 -2.078125 0.765625q-0.859375 0.75 -0.859375 2.875l0 6.046875l-1.875 0z" fill-rule="nonzero"/></g><g filter="url(#shadowFilter-p.7)"><use xlink:href="#p.7" transform="matrix(1.0 0.0 0.0 1.0 0.0 2.0)"/></g><defs><filter id="shadowFilter-p.7" filterUnits="userSpaceOnUse"><feGaussianBlur in="SourceAlpha" stdDeviation="2.0" result="blur"/><feComponentTransfer in="blur" color-interpolation-filters="sRGB"><feFuncR type="linear" slope="0" intercept="0.0"/><feFuncG type="linear" slope="0" intercept="0.0"/><feFuncB type="linear" slope="0" intercept="0.0"/><feFuncA type="linear" slope="0.5" intercept="0"/></feComponentTransfer></filter></defs><g id="p.7"><path fill="#ffffff" d="m70.45701 139.23306l14.0 0l0 -59.338585l28.0 0l0 59.338585l14.0 0l-28.0 28.0z" fill-rule="evenodd"/><path stroke="#000000" stroke-width="1.0" stroke-linejoin="round" stroke-linecap="butt" d="m70.45701 139.23306l14.0 0l0 -59.338585l28.0 0l0 59.338585l14.0 0l-28.0 28.0z" fill-rule="evenodd"/></g><g filter="url(#shadowFilter-p.8)"><use xlink:href="#p.8" transform="matrix(1.0 0.0 0.0 1.0 0.0 2.0)"/></g><defs><filter id="shadowFilter-p.8" filterUnits="userSpaceOnUse"><feGaussianBlur in="SourceAlpha" stdDeviation="2.0" result="blur"/><feComponentTransfer in="blur" color-interpolation-filters="sRGB"><feFuncR type="linear" slope="0" intercept="0.0"/><feFuncG type="linear" slope="0" intercept="0.0"/><feFuncB type="linear" slope="0" intercept="0.0"/><feFuncA type="linear" slope="0.5" intercept="0"/></feComponentTransfer></filter></defs><g id="p.8"><path fill="#000000" fill-opacity="0.0" d="m17.085611 286.63202l173.07086 0l0 45.259827l-173.07086 0z" fill-rule="evenodd"/><path fill="#000000" d="m30.398111 316.112l-4.046875 -15.265625l2.0625 0l2.328125 10.0q0.375 1.578125 0.640625 3.125q0.59375 -2.4375 0.6874981 -2.8125l2.90625 -10.3125l2.4375 0l2.1875 7.71875q0.828125 2.875 1.1875 5.40625q0.296875 -1.4375 0.765625 -3.3125l2.390625 -9.8125l2.03125 0l-4.1875 15.265625l-1.953125 0l-3.203125 -11.625q-0.40625 -1.46875 -0.484375 -1.796875q-0.234375 1.046875 -0.453125 1.796875l-3.234375 11.625l-2.062498 0zm24.41696 -3.5625l1.921875 0.234375q-0.453125 1.703125 -1.6875 2.640625q-1.234375 0.9375 -3.171875 0.9375q-2.421875 0 -3.84375 -1.484375q-1.421875 -1.5 -1.421875 -4.203125q0 -2.796875 1.4375 -4.328125q1.4375 -1.546875 3.734375 -1.546875q2.21875 0 3.609375 1.515625q1.40625 1.5 1.40625 4.25q0 0.15625 0 0.5l-8.25 0q0.109375 1.8125 1.03125 2.78125q0.921875 0.96875 2.3125 0.96875q1.03125 0 1.75 -0.53125q0.734375 -0.546875 1.171875 -1.734375zm-6.15625 -3.03125l6.171875 0q-0.125 -1.390625 -0.703125 -2.09375q-0.90625 -1.078125 -2.328125 -1.078125q-1.296875 0 -2.171875 0.859375q-0.875 0.859375 -0.96875 2.3125zm12.174194 6.59375l-1.75 0l0 -15.265625l1.875 0l0 5.4375q1.1875 -1.484375 3.03125 -1.484375q1.03125 0 1.9375 0.421875q0.90625 0.40625 1.5 1.15625q0.59375 0.734375 0.921875 1.796875q0.328125 1.046875 0.328125 2.234375q0 2.84375 -1.40625 4.40625q-1.40625 1.546875 -3.375 1.546875q-1.953125 0 -3.0625 -1.640625l0 1.390625zm-0.03125 -5.609375q0 1.984375 0.546875 2.875q0.890625 1.4375 2.390625 1.4375q1.234375 0 2.125 -1.0625q0.90625 -1.0625 0.90625 -3.1875q0 -2.15625 -0.859375 -3.1875q-0.859375 -1.03125 -2.078125 -1.03125q-1.234375 0 -2.140625 1.0625q-0.890625 1.0625 -0.890625 3.09375zm8.721069 5.609375l5.859375 -15.265625l2.1875 0l6.234375 15.265625l-2.296875 0l-1.78125 -4.625l-6.375 0l-1.6875 4.625l-2.140625 0zm4.40625 -6.265625l5.171875 0l-1.59375 -4.234375q-0.71875 -1.921875 -1.078125 -3.15625q-0.296875 1.46875 -0.828125 2.90625l-1.671875 4.484375zm10.506943 2.96875l1.859375 -0.296875q0.15625 1.109375 0.859375 1.703125q0.71875 0.59375 2.0 0.59375q1.296875 0 1.921875 -0.515625q0.625 -0.53125 0.625 -1.234375q0 -0.640625 -0.5625 -1.0q-0.375 -0.25 -1.90625 -0.640625q-2.0625 -0.515625 -2.859375 -0.890625q-0.796875 -0.390625 -1.21875 -1.0625q-0.40625 -0.671875 -0.40625 -1.484375q0 -0.734375 0.328125 -1.359375q0.34375 -0.640625 0.9375 -1.0625q0.4375 -0.3125 1.1875 -0.53125q0.75 -0.234375 1.625 -0.234375q1.296875 0 2.28125 0.375q0.984375 0.375 1.453125 1.015625q0.46875 0.640625 0.640625 1.71875l-1.828125 0.25q-0.125 -0.859375 -0.734375 -1.328125q-0.59375 -0.484375 -1.6875 -0.484375q-1.28125 0 -1.84375 0.421875q-0.546875 0.421875 -0.546875 1.0q0 0.359375 0.234375 0.65625q0.21875 0.296875 0.71875 0.5q0.28125 0.109375 1.65625 0.484375q1.984375 0.53125 2.765625 0.875q0.796875 0.328125 1.234375 0.984375q0.453125 0.640625 0.453125 1.59375q0 0.9375 -0.546875 1.765625q-0.546875 0.828125 -1.578125 1.28125q-1.03125 0.453125 -2.328125 0.453125q-2.15625 0 -3.296875 -0.890625q-1.125 -0.90625 -1.4375 -2.65625zm10.6640625 0l1.859375 -0.296875q0.15625 1.109375 0.859375 1.703125q0.71875 0.59375 2.0 0.59375q1.296875 0 1.921875 -0.515625q0.625 -0.53125 0.625 -1.234375q0 -0.640625 -0.5625 -1.0q-0.375 -0.25 -1.90625 -0.640625q-2.0625 -0.515625 -2.859375 -0.890625q-0.796875 -0.390625 -1.21875 -1.0625q-0.40625 -0.671875 -0.40625 -1.484375q0 -0.734375 0.328125 -1.359375q0.34375 -0.640625 0.9375 -1.0625q0.4375 -0.3125 1.1875 -0.53125q0.75 -0.234375 1.625 -0.234375q1.296875 0 2.28125 0.375q0.984375 0.375 1.453125 1.015625q0.46875 0.640625 0.640625 1.71875l-1.828125 0.25q-0.125 -0.859375 -0.734375 -1.328125q-0.59375 -0.484375 -1.6875 -0.484375q-1.28125 0 -1.84375 0.421875q-0.546875 0.421875 -0.546875 1.0q0 0.359375 0.234375 0.65625q0.21875 0.296875 0.71875 0.5q0.28125 0.109375 1.65625 0.484375q1.984375 0.53125 2.765625 0.875q0.796875 0.328125 1.234375 0.984375q0.453125 0.640625 0.453125 1.59375q0 0.9375 -0.546875 1.765625q-0.546875 0.828125 -1.578125 1.28125q-1.03125 0.453125 -2.328125 0.453125q-2.15625 0 -3.296875 -0.890625q-1.125 -0.90625 -1.4375 -2.65625zm18.992188 -0.265625l1.921875 0.234375q-0.453125 1.703125 -1.6875 2.640625q-1.234375 0.9375 -3.171875 0.9375q-2.421875 0 -3.84375 -1.484375q-1.421875 -1.5 -1.421875 -4.203125q0 -2.796875 1.4375 -4.328125q1.4375 -1.546875 3.734375 -1.546875q2.21875 0 3.609375 1.515625q1.40625 1.5 1.40625 4.25q0 0.15625 0 0.5l-8.25 0q0.109375 1.8125 1.03125 2.78125q0.921875 0.96875 2.3125 0.96875q1.03125 0 1.75 -0.53125q0.734375 -0.546875 1.171875 -1.734375zm-6.15625 -3.03125l6.171875 0q-0.125 -1.390625 -0.703125 -2.09375q-0.90625 -1.078125 -2.328125 -1.078125q-1.296875 0 -2.171875 0.859375q-0.875 0.859375 -0.96875 2.3125zm10.439819 6.59375l0 -11.0625l1.671875 0l0 1.546875q0.53125 -0.8125 1.390625 -1.296875q0.859375 -0.5 1.96875 -0.5q1.234375 0 2.015625 0.515625q0.78125 0.5 1.109375 1.421875q1.3125 -1.9375 3.4062576 -1.9375q1.65625 0 2.53125 0.921875q0.890625 0.90625 0.890625 2.796875l0 7.59375l-1.859375 0l0 -6.96875q0 -1.125 -0.1875 -1.609375q-0.1875 -0.5 -0.671875 -0.796875q-0.46875 -0.3125 -1.109375 -0.3125q-1.171875 0 -1.9375076 0.78125q-0.765625 0.765625 -0.765625 2.484375l0 6.421875l-1.875 0l0 -7.1875q0 -1.25 -0.46875 -1.875q-0.453125 -0.625 -1.5 -0.625q-0.78125 0 -1.453125 0.421875q-0.671875 0.40625 -0.984375 1.21875q-0.296875 0.796875 -0.296875 2.3125l0 5.734375l-1.875 0zm19.500877 0l-1.75 0l0 -15.265625l1.875 0l0 5.4375q1.1875 -1.484375 3.03125 -1.484375q1.03125 0 1.9375 0.421875q0.90625 0.40625 1.5 1.15625q0.59375 0.734375 0.921875 1.796875q0.328125 1.046875 0.328125 2.234375q0 2.84375 -1.40625 4.40625q-1.40625 1.546875 -3.375 1.546875q-1.953125 0 -3.0625 -1.640625l0 1.390625zm-0.03125 -5.609375q0 1.984375 0.546875 2.875q0.890625 1.4375 2.390625 1.4375q1.234375 0 2.125 -1.0625q0.90625 -1.0625 0.90625 -3.1875q0 -2.15625 -0.859375 -3.1875q-0.859375 -1.03125 -2.078125 -1.03125q-1.234375 0 -2.140625 1.0625q-0.890625 1.0625 -0.890625 3.09375zm10.111694 5.609375l0 -15.265625l1.875 0l0 15.265625l-1.875 0zm4.707184 4.265625l-0.21875 -1.765625q0.625 0.171875 1.078125 0.171875q0.625 0 1.0 -0.21875q0.375 -0.203125 0.609375 -0.578125q0.1875 -0.28125 0.578125 -1.390625q0.046875 -0.15625 0.171875 -0.46875l-4.203125 -11.078125l2.015625 0l2.3125 6.40625q0.4375 1.21875 0.796875 2.5625q0.328125 -1.296875 0.765625 -2.515625l2.375 -6.453125l1.875 0l-4.21875 11.25q-0.671875 1.828125 -1.046875 2.515625q-0.5 0.921875 -1.15625 1.34375q-0.640625 0.4375 -1.53125 0.4375q-0.546875 0 -1.203125 -0.21875z" fill-rule="nonzero"/></g></g></svg>