<?xml version="1.0" encoding="UTF-8"?>
<svg xmlns="http://www.w3.org/2000/svg" xmlns:xlink="http://www.w3.org/1999/xlink" width="900pt" height="139.957pt" viewBox="0 0 860 139.957" version="1.1">
<defs>
<clipPath id="clip1">
  <path d="M 129 0 L 618 0 L 618 139.957031 L 129 139.957031 Z M 129 0 "/>
</clipPath>
<clipPath id="clip2">
  <path d="M 1364 55 L 1372.261719 55 L 1372.261719 105 L 1364 105 Z M 1364 55 "/>
</clipPath>
</defs>
<g id="surface1">
<path style=" stroke:none;fill-rule:nonzero;fill:rgb(100%,100%,100%);fill-opacity:1;" d="M 0 48.125 L 0 56.125 L 15 56.125 L 15 97.125 L 23 97.125 L 23 56.125 L 38 56.125 L 38 48.125 Z M 0 48.125 "/>
<path style=" stroke:none;fill-rule:nonzero;fill:rgb(100%,100%,100%);fill-opacity:1;" d="M 43 97.125 L 43 48.125 L 51 48.125 L 51 66.890625 C 53 64.515625 57.503906 61.472656 63.859375 61.472656 C 70.007812 61.472656 74 65.117188 74 72.054688 L 74 97.125 L 66 97.125 L 66 74.105469 C 66 70.210938 64.222656 68.417969 60.648438 68.417969 C 57.082031 68.417969 54 70.269531 51 72.984375 L 51 97.125 L 43 97.125 "/>
<path style=" stroke:none;fill-rule:nonzero;fill:rgb(100%,100%,100%);fill-opacity:1;" d="M 104.199219 76.210938 C 103.730469 70.847656 101.1875 67.960938 96.289062 67.960938 C 92.320312 67.960938 88.78125 70.125 87.984375 76.125 L 104 76.125 M 79.714844 79.730469 C 79.714844 66.363281 89.242188 61.472656 96.523438 61.472656 C 104.394531 61.472656 112 66.164062 112 80.453125 L 112 82.125 L 87.855469 82.125 C 88.183594 89.125 92.085938 91.382812 97.253906 91.382812 C 101.816406 91.382812 104.464844 89.925781 107.105469 87.339844 L 111.410156 91.605469 C 107.769531 95.648438 102.9375 97.976562 96.652344 97.976562 C 87.855469 97.976562 79.714844 92.636719 79.714844 79.730469 "/>
<g clip-path="url(#clip1)" clip-rule="nonzero">
<path style=" stroke:none;fill-rule:nonzero;fill:rgb(100%,100%,100%);fill-opacity:1;" d="M 587.144531 103.039062 C 587.144531 103.039062 586.277344 105.585938 585.644531 107.582031 C 584.542969 111.027344 582.128906 120.308594 581.570312 123.191406 C 580.726562 127.472656 578.332031 138.683594 578.210938 138.921875 C 578.039062 139.25 577.929688 139.351562 577.523438 139.609375 C 576.535156 140.191406 576.140625 140 574.945312 139.359375 C 573.394531 138.542969 572.03125 137.710938 570.867188 136.171875 C 568.527344 133.136719 569.085938 127.417969 569.542969 124.066406 C 571.148438 112.332031 572.773438 107.171875 577.234375 95.492188 C 577.308594 95.292969 577.308594 95.246094 577.21875 95.070312 C 575.828125 92.105469 575.078125 88.527344 575.078125 85.632812 C 575.089844 76.480469 580.347656 67.421875 586.246094 60.148438 C 586.691406 59.597656 589.589844 56.125 590.902344 56.195312 C 592.222656 56.257812 592.433594 57.796875 592.238281 59.078125 C 591.574219 63.308594 588.601562 67.613281 586.566406 71.179688 C 584.277344 75.164062 583.78125 76.804688 582.664062 80.460938 C 582.484375 81.03125 582.035156 83.699219 582.058594 84.042969 C 582.101562 85.023438 582.316406 86.261719 582.316406 86.261719 C 582.316406 86.261719 586.035156 81.054688 588.492188 77.835938 C 589.832031 76.074219 590.796875 74.90625 591.914062 73.648438 C 593.046875 72.371094 597.410156 67.835938 598.664062 66.640625 C 601.304688 64.121094 602.472656 63.074219 605.324219 61.597656 C 607.589844 60.425781 609.617188 60.136719 611.824219 61.59375 C 615.320312 63.890625 616.84375 68.746094 617.238281 72.6875 C 617.695312 77.394531 616.734375 82.6875 614.660156 86.71875 C 612.199219 91.527344 608.835938 94.992188 604.261719 98.019531 C 599.585938 101.117188 594.101562 103.226562 588.722656 103.101562 C 587.992188 103.082031 587.144531 103.039062 587.144531 103.039062 M 608.894531 69.460938 C 606.15625 71.753906 602.617188 76.429688 600.929688 78.855469 C 598.671875 82.074219 596.550781 85.761719 594.519531 88.613281 C 594.082031 89.257812 592.773438 91.554688 592.820312 91.628906 C 592.910156 91.792969 594.230469 91.742188 595.585938 91.515625 C 598.46875 91.027344 602.390625 89.003906 604.484375 87.332031 C 607.675781 84.773438 609.898438 81.257812 610.949219 77.148438 C 611.414062 75.28125 611.648438 71.363281 610.324219 69.621094 C 610.066406 69.285156 609.40625 69.023438 608.894531 69.460938 M 541.734375 98.980469 C 541.40625 98.730469 540.882812 98.195312 540.5 97.765625 C 540.441406 97.703125 539.359375 96.082031 539.144531 95.582031 C 538.957031 95.152344 538.816406 94.84375 538.679688 94.484375 C 537.695312 91.941406 537.71875 89.441406 538.265625 86.710938 C 538.769531 84.164062 539.246094 84.050781 540.554688 80.554688 C 540.636719 80.363281 540.675781 80.195312 540.707031 79.984375 C 540.761719 79.507812 539.984375 76.285156 539.9375 75.246094 C 539.882812 73.667969 541.109375 72.546875 543.164062 72.328125 C 543.351562 72.3125 543.492188 72.316406 543.628906 72.277344 C 544.449219 72.074219 544.972656 70.507812 545.421875 69.25 C 546.046875 67.480469 547.019531 64.785156 547.019531 64.785156 C 547.019531 64.785156 544.425781 64.1875 543.035156 63.660156 C 541.484375 63.074219 540.3125 62.320312 539.609375 60.898438 C 538.769531 59.230469 539.320312 58.308594 541.0625 57.769531 C 541.699219 57.5625 546.738281 56.59375 548.332031 56.371094 C 550.316406 56.078125 552.183594 55.832031 554.074219 55.597656 C 555.714844 55.398438 563.253906 54.523438 565.652344 54.585938 C 569.308594 54.691406 571.683594 56.199219 573.820312 59.292969 C 574.96875 60.945312 575.753906 62.90625 574.019531 63.972656 C 571.355469 65.589844 562.722656 65.710938 561.140625 65.730469 C 558.621094 65.753906 555.136719 65.710938 555.136719 65.710938 L 553.378906 71.585938 C 553.378906 71.585938 559.5625 71.519531 563.039062 71.503906 C 563.882812 71.503906 564.726562 71.550781 565.199219 71.652344 C 566.976562 72.042969 567.589844 73.40625 567.660156 75.375 C 567.757812 77.671875 567.324219 78.730469 565.492188 79.039062 C 564.546875 79.191406 553.921875 79.253906 552.480469 79.421875 C 551.582031 79.519531 550.632812 79.660156 550.632812 79.660156 C 550.632812 79.660156 549.863281 81.664062 549.199219 83.6875 C 548.523438 85.792969 547.949219 87.941406 547.949219 87.941406 C 547.949219 87.941406 548.488281 87.964844 548.9375 87.964844 C 549.683594 87.972656 550.441406 87.863281 551.035156 87.761719 C 554.277344 87.164062 559.09375 86.453125 563.046875 85.832031 C 565.171875 85.492188 566.242188 85.339844 567.359375 86.75 C 568.328125 87.996094 568.828125 89.039062 568.898438 90.546875 C 568.957031 91.964844 567.878906 92.902344 566.554688 93.914062 C 562.378906 97.109375 555.234375 100.570312 549.910156 101.164062 C 547.453125 101.441406 546.851562 101.167969 544.699219 100.605469 C 544.289062 100.5 542.800781 99.804688 542.8125 99.730469 C 542.8125 99.730469 542.007812 99.191406 541.734375 98.980469 M 500.285156 99.691406 C 497.277344 98.585938 496.597656 93.734375 496.457031 91.277344 C 495.980469 83.28125 498.09375 72.15625 500.777344 64.660156 C 501.546875 62.527344 502.648438 59.042969 505.035156 59.238281 C 506.679688 59.386719 507.851562 60.652344 508.773438 61.953125 C 511.128906 65.277344 514.226562 69.78125 516.28125 72.914062 C 518.578125 76.429688 520.78125 79.96875 522.949219 83.171875 C 523.21875 83.5625 523.46875 83.9375 523.757812 84.175781 C 524.152344 84.492188 524.507812 84.511719 524.664062 84.21875 C 524.738281 84.101562 524.597656 80.0625 524.496094 79.253906 C 524.328125 77.964844 524.253906 76.917969 524.105469 75.808594 C 523.707031 72.574219 522.675781 68.027344 521.871094 64.953125 C 520.980469 61.511719 519.894531 57.925781 519.078125 54.597656 C 518.820312 53.515625 518.578125 52.425781 518.585938 51.394531 C 518.59375 49.90625 519.550781 49.082031 521.101562 49.636719 C 524.160156 50.714844 528.214844 57.355469 529.394531 59.660156 C 529.796875 60.4375 531.390625 64.398438 531.746094 65.507812 C 533.015625 69.308594 533.78125 72.914062 534.132812 77.058594 C 534.46875 81.085938 534.1875 86.953125 532.484375 90.925781 C 531.859375 92.386719 530.574219 94.351562 529.511719 95.34375 C 527.835938 96.894531 524.496094 98.105469 522.199219 96.792969 C 519.683594 95.367188 515.550781 88.207031 514.84375 86.984375 C 512.445312 82.796875 508.316406 74.605469 507.679688 73.6875 C 507.539062 73.484375 507.355469 73.289062 507.035156 73.195312 C 506.792969 73.121094 506.695312 73.628906 506.636719 73.957031 C 506.222656 76.339844 505.941406 87.492188 505.9375 87.804688 C 505.867188 89.683594 505.777344 94.285156 505.234375 96.554688 C 504.878906 98.035156 504.519531 99.25 503.160156 99.871094 C 502.191406 100.308594 501.457031 100.125 500.285156 99.691406 M 477.050781 71.835938 C 477.257812 71.855469 477.308594 71.863281 477.5 71.894531 C 480.902344 72.355469 484.234375 72.964844 486.78125 74.105469 C 489.144531 75.15625 490.535156 76.476562 491.800781 78.832031 C 493.726562 82.40625 493.855469 87.410156 492.113281 91.195312 C 490.8125 94.011719 487.960938 96.375 485.355469 97.632812 C 482.644531 98.945312 479.988281 99.566406 476.929688 99.914062 C 471.597656 100.5 465.816406 99.398438 461.007812 97.070312 C 458.164062 95.679688 454.6875 93.289062 452.933594 90.207031 C 451.644531 87.941406 451.683594 85.007812 453.257812 82.863281 C 455.753906 79.445312 461.101562 78.691406 465.136719 78.832031 C 468.214844 78.949219 473.742188 79.902344 476.664062 80.9375 C 477.476562 81.230469 480.460938 82.394531 480.976562 82.917969 C 481.34375 83.292969 481.585938 83.828125 481.421875 84.332031 C 480.746094 86.371094 475.796875 87.449219 474.367188 87.664062 C 470.53125 88.246094 468.546875 86.800781 464.191406 85.082031 C 463.109375 84.660156 461.667969 84.191406 460.5625 84.085938 C 458.589844 83.898438 456.199219 84.445312 455.828125 86.609375 C 455.632812 87.726562 456.9375 88.765625 457.933594 89.195312 C 460.269531 90.207031 462.171875 90.5625 464.476562 90.601562 C 471.261719 90.703125 478.894531 89.585938 484.453125 85.652344 C 485.21875 85.113281 485.960938 84.3125 485.972656 83.3125 C 485.972656 83.183594 485.789062 82.105469 485.441406 81.996094 C 485.390625 81.972656 485.335938 81.996094 485.296875 81.988281 C 485.167969 81.953125 484.953125 81.601562 484.773438 81.371094 C 484.375 80.882812 482.765625 80.1875 482.449219 80.054688 C 478.703125 78.492188 471.789062 77.734375 468.222656 77.441406 C 464.484375 77.121094 458.605469 76.625 457.191406 76.421875 C 455.738281 76.214844 454.15625 75.925781 452.894531 75.359375 C 451.636719 74.789062 450.398438 73.511719 450.027344 72.097656 C 449.378906 69.546875 450.214844 66.417969 451.628906 64.375 C 455.34375 59.035156 464.03125 57.011719 470.53125 56.207031 C 476.820312 55.421875 486.988281 55.429688 493.164062 58.714844 C 494.121094 59.222656 494.609375 59.699219 494.40625 60.71875 C 494.007812 62.632812 492.558594 63.867188 490.820312 64.40625 C 488.992188 64.988281 485.210938 65.214844 483.550781 65.316406 C 476.101562 65.738281 467.101562 65.519531 460.011719 67.453125 C 459.457031 67.613281 458.496094 67.863281 458.179688 68.21875 C 457.070312 69.417969 460.242188 69.761719 460.925781 69.910156 C 461.125 69.949219 461.167969 69.960938 461.375 69.980469 L 477.050781 71.835938 M 429.210938 69.746094 C 429.457031 71.96875 428.882812 76.167969 428.785156 76.71875 C 428.605469 77.996094 427.640625 80.9375 427.488281 81.296875 C 426.707031 83.082031 425.945312 84.554688 425.128906 86.015625 C 423.738281 88.519531 420.433594 92.484375 418.46875 94.183594 C 411.171875 100.492188 399.867188 104.085938 390.167969 105.273438 C 383.59375 106.066406 376.035156 105.945312 369.058594 104.65625 C 366.664062 104.214844 363.097656 103.398438 363.097656 103.398438 C 363.097656 103.398438 363.105469 104.828125 362.988281 105.832031 C 362.933594 106.285156 362.585938 107.492188 362.394531 107.886719 C 361.886719 108.933594 361.054688 109.472656 359.847656 109.699219 C 358.386719 109.976562 356.839844 110.0625 355.488281 109.492188 C 353.273438 108.550781 352.476562 106.476562 352.09375 104.097656 C 351.777344 102.179688 351.449219 98.851562 351.449219 98.851562 C 351.449219 98.851562 349.796875 98.070312 348.414062 97.378906 C 344.167969 95.285156 340.132812 92.757812 336.609375 90.144531 C 335.632812 89.421875 331.433594 85.902344 330.503906 85.023438 C 327.90625 82.566406 325.570312 80.109375 323.789062 76.960938 C 322.40625 74.5 322.007812 72.3125 323.058594 69.707031 C 324.515625 66.078125 329.71875 63.335938 333.285156 61.773438 C 335.90625 60.621094 344.039062 57.964844 347.421875 57.472656 C 349.019531 57.246094 351.492188 56.804688 351.644531 56.703125 C 351.707031 56.65625 351.753906 56.617188 351.796875 56.5625 C 351.871094 56.453125 352.003906 52.851562 351.980469 51.539062 C 351.949219 50.246094 352.9375 41.753906 353.253906 39.957031 C 353.425781 38.980469 354.160156 35.242188 354.914062 34.261719 C 355.402344 33.601562 356.273438 33.644531 356.980469 34.085938 C 360.855469 36.492188 362.03125 44.855469 362.320312 49.113281 C 362.492188 51.703125 362.578125 55.601562 362.578125 55.601562 C 362.578125 55.601562 367.027344 55.472656 369.765625 55.542969 C 372.421875 55.609375 375.351562 56.03125 378.109375 56.472656 C 381.644531 57.03125 388.53125 58.535156 392.480469 60.539062 C 395.734375 62.1875 398.773438 64.96875 399.761719 67.90625 C 400.679688 70.605469 400.539062 72.464844 399.144531 74.898438 C 397.578125 77.648438 394.609375 79.683594 391.597656 79.851562 C 390.699219 79.910156 387.332031 79.460938 386.296875 78.660156 C 385.886719 78.335938 385.90625 77.757812 386.203125 77.367188 C 386.316406 77.226562 387.886719 76.402344 388.820312 75.902344 C 389.285156 75.648438 389.671875 75.378906 390.03125 75.046875 C 390.808594 74.359375 391.5 73.613281 391.425781 72.742188 C 391.316406 71.601562 390.113281 70.894531 388.960938 70.445312 C 383.570312 68.304688 372.804688 66.523438 367.597656 66.214844 C 365.558594 66.09375 362.667969 65.992188 362.667969 65.992188 L 363.277344 94.722656 C 363.277344 94.722656 365.675781 95.183594 367.558594 95.488281 C 368.644531 95.648438 373.234375 96.0625 374.449219 96.09375 C 383.734375 96.339844 394.101562 95.511719 402.621094 91.480469 C 406.359375 89.722656 409.792969 87.535156 412.386719 84.570312 C 415.816406 80.636719 417.609375 75.269531 417.136719 69.660156 C 416.613281 63.519531 412.296875 56.253906 408.855469 51.824219 C 399.753906 40.113281 384.152344 30.492188 370.433594 24.847656 C 356.417969 19.089844 342.570312 15.769531 327.695312 15.214844 C 323.863281 15.078125 315.5 15.273438 311.28125 16.441406 C 310.671875 16.609375 310.066406 16.816406 309.503906 16.9375 C 309.058594 17.042969 308.367188 17.335938 308.175781 17.488281 C 308.070312 17.582031 307.960938 17.695312 307.960938 17.695312 C 307.960938 17.695312 308.222656 17.835938 308.472656 17.949219 C 308.917969 18.144531 310.804688 18.253906 311.78125 18.433594 C 312.648438 18.597656 313.5625 19.0625 313.917969 19.703125 C 314.257812 20.308594 314.308594 20.785156 313.894531 21.289062 C 312.933594 22.464844 309.328125 22.257812 307.746094 22.011719 C 306.097656 21.746094 304.046875 21.246094 303.667969 19.808594 C 303.234375 18.117188 304.027344 16.457031 304.898438 14.921875 C 306.644531 11.859375 309.136719 10.261719 312.800781 9.265625 C 317.992188 7.839844 324.550781 6.835938 329.457031 6.648438 C 340.5625 6.234375 351.070312 8.167969 361.824219 11.441406 C 367.980469 13.296875 376.046875 16.421875 381.941406 19.265625 C 386.171875 21.304688 392.84375 25.0625 396.59375 27.519531 C 397.773438 28.296875 404.691406 33.378906 405.765625 34.269531 C 408.007812 36.101562 410.941406 38.734375 413.058594 40.84375 C 417.164062 44.914062 422.273438 51.148438 424.761719 56.097656 C 425.351562 57.289062 425.820312 58.453125 426.585938 59.828125 C 426.851562 60.292969 427.988281 63.113281 428.175781 63.929688 C 428.363281 64.734375 428.636719 65.917969 428.675781 65.960938 C 428.734375 66.398438 429.253906 68.808594 429.210938 69.746094 M 351.449219 66.457031 C 351.449219 66.457031 347.203125 66.757812 344.289062 67.082031 C 340.570312 67.480469 333.589844 68.6875 329.570312 70.132812 C 328.355469 70.554688 325.898438 71.585938 325.6875 72.824219 C 325.46875 74.117188 326.261719 75.121094 327.15625 76.167969 C 327.667969 76.769531 330.578125 79.566406 331.390625 80.25 C 334.8125 83.097656 341.742188 87.503906 346.859375 89.644531 C 348.605469 90.371094 351.507812 91.410156 351.507812 91.410156 C 351.507812 91.410156 351.289062 83.148438 351.335938 75.007812 C 351.351562 70.707031 351.449219 66.457031 351.449219 66.457031 M 439.742188 56.308594 C 439.910156 56.339844 440.175781 56.417969 440.398438 56.496094 C 442.355469 57.246094 443.160156 59.058594 443.644531 61.042969 C 444.761719 65.664062 445.242188 75.878906 445.425781 79.890625 C 445.5625 82.886719 445.636719 85.847656 445.761719 88.8125 C 445.867188 91.324219 446.066406 94.667969 445.546875 97.027344 C 445.355469 97.875 444.789062 98.851562 443.976562 99.359375 C 443.046875 99.953125 440.929688 100 439.769531 99.761719 C 436.902344 99.167969 435.96875 97.324219 435.566406 94.492188 C 434.59375 87.726562 435.058594 74.453125 435.632812 68.851562 C 435.820312 67.011719 436.519531 61.085938 437.488281 58.601562 C 437.8125 57.757812 438.519531 56.070312 439.742188 56.308594 M 170.609375 87.375 C 170.609375 87.375 171.082031 88.203125 171.453125 88.820312 C 173.515625 92.257812 176.808594 94.226562 180.789062 94.421875 C 184.863281 94.628906 190.101562 92.265625 193.085938 90.191406 C 201.617188 84.257812 206.109375 73.558594 208.554688 63.308594 C 211.441406 51.285156 211.570312 38.605469 208.132812 26.972656 C 206.140625 20.222656 202.261719 11.769531 197.453125 6.714844 C 196.023438 5.214844 193.828125 3.167969 193.203125 2.328125 C 192.554688 1.464844 192.394531 0.738281 193.390625 0.160156 C 194.4375 -0.441406 196.730469 0.808594 197.871094 1.496094 C 203.484375 4.90625 207.152344 8.304688 210.476562 13.183594 C 211.3125 14.417969 214.683594 19.957031 215.300781 21.117188 C 219.070312 28.234375 221.003906 34.4375 222.039062 42.292969 C 223.347656 52.289062 222.511719 63.644531 219.046875 73.667969 C 217.535156 78.066406 215.203125 82.59375 212.773438 86.410156 C 212.195312 87.304688 208.652344 92.066406 208.21875 92.535156 C 207 93.820312 203.988281 96.425781 202.582031 97.558594 C 195.546875 103.203125 187.949219 106.902344 179.609375 105.882812 C 175.019531 105.316406 171.253906 103.796875 167.582031 100.808594 C 166.171875 99.652344 163.792969 97.242188 162.839844 95.523438 C 162.222656 94.421875 161.449219 93.085938 161.351562 93.066406 C 161.242188 93.042969 160.835938 93.320312 160.390625 93.628906 C 160.003906 93.898438 158.351562 94.664062 157.476562 94.992188 C 151.753906 97.125 145.351562 96.621094 140.09375 93.210938 C 136.28125 90.742188 133.054688 86.054688 131.628906 81.800781 C 129.523438 75.492188 129.355469 68.960938 130.210938 62.25 C 131.675781 50.867188 135.773438 40.082031 141.886719 30.535156 C 145.742188 24.519531 150.742188 18.574219 156.710938 14.3125 C 157.378906 13.828125 161.019531 11.710938 161.765625 11.371094 C 163.109375 10.738281 164.902344 10.152344 165.9375 11.257812 C 166.476562 11.832031 166.460938 12.296875 166.0625 13.054688 C 165.425781 14.226562 163.808594 15.816406 162.910156 16.769531 C 162.136719 17.609375 157.738281 22.996094 156.832031 24.257812 C 155.835938 25.605469 151.363281 32.304688 150.777344 33.335938 C 145.132812 43.105469 140.652344 58.582031 141.085938 70.585938 C 141.179688 73.066406 141.542969 76.640625 142.097656 78.96875 C 142.855469 82.105469 144.722656 86.351562 147.527344 88.335938 C 150.480469 90.429688 153.214844 90.308594 156.75 88.90625 C 157.6875 88.527344 159.023438 87.925781 159.023438 87.925781 C 159.023438 87.925781 157.992188 85.285156 157.320312 83.304688 C 155.46875 77.796875 154.726562 69.011719 155.40625 62.960938 C 155.96875 58.003906 157.074219 54.207031 159.316406 50.269531 C 161.101562 47.117188 163.507812 44.019531 166.511719 41.457031 C 169.40625 38.988281 174.035156 36.835938 178.105469 36.730469 C 181.488281 36.648438 184.992188 38.121094 186.769531 41.195312 C 189.855469 46.542969 190.050781 54.984375 189.179688 60.546875 C 187.875 68.960938 183.519531 76.859375 177.234375 82.210938 C 174.976562 84.128906 170.609375 87.375 170.609375 87.375 M 179.070312 50.726562 C 179.070312 50.726562 178.972656 48.226562 178.765625 46.832031 C 178.589844 45.648438 178.351562 44.761719 177.789062 43.859375 C 177.175781 42.871094 176.703125 42.25 175.730469 42.101562 C 174.539062 41.925781 173.878906 42.738281 173.136719 43.910156 C 172.144531 45.5 171.15625 48.445312 170.578125 50.308594 C 169.734375 52.953125 169.378906 54.582031 168.929688 57.59375 C 168.183594 62.535156 167.429688 70.9375 168.230469 76.65625 C 168.378906 77.640625 168.625 79.078125 168.625 79.078125 C 168.625 79.078125 169.816406 77.742188 170.6875 76.804688 C 171.058594 76.402344 172.828125 73.753906 172.984375 73.480469 C 173.289062 72.949219 174.109375 71.550781 174.222656 71.265625 C 174.394531 70.960938 175.671875 68.226562 175.894531 67.582031 C 176.320312 66.355469 176.945312 64.46875 177.421875 62.960938 C 178.542969 59.492188 178.34375 58.210938 179.070312 54.359375 C 179.152344 53.917969 179.226562 50.726562 179.144531 50.726562 C 179.113281 50.714844 179.070312 50.726562 179.070312 50.726562 M 223.316406 76.234375 C 223.316406 76.234375 224.378906 73.84375 225.207031 72.035156 C 226.078125 70.136719 230.472656 61.308594 232.285156 58.8125 C 234.292969 56.023438 238.132812 50.753906 238.164062 50.597656 C 238.246094 50.015625 238.371094 48.988281 238.910156 48.164062 C 239.328125 47.507812 240.363281 47.230469 241.371094 47.164062 C 242.488281 47.097656 243.644531 47.921875 244.144531 48.84375 C 245.113281 50.585938 246.761719 55.558594 247.117188 56.742188 C 249.042969 63.359375 251.121094 75.710938 251.804688 82.058594 C 251.980469 83.726562 252.535156 92.402344 252.578125 94.359375 C 252.617188 95.730469 252.578125 98.003906 251.789062 99.128906 C 251.5 99.558594 250.941406 99.914062 250.402344 99.90625 C 249.671875 99.878906 248.207031 98.863281 247.566406 98.261719 C 245.789062 96.585938 244.605469 94.882812 244.226562 92.796875 C 243.898438 90.984375 243.441406 85.777344 243.441406 85.777344 L 235.691406 86.085938 L 231.378906 86.160156 C 231.378906 86.160156 230.96875 87.164062 230.636719 88.003906 C 229.914062 89.800781 229.265625 91.597656 228.984375 92.609375 C 228.421875 94.636719 227.335938 98.660156 227.074219 99.285156 C 226.53125 100.605469 226.050781 101.371094 224.769531 101.542969 C 223.351562 101.730469 222.375 101.832031 221.347656 101.273438 C 219.414062 100.214844 218.53125 97.972656 218.203125 95.65625 C 217.628906 91.71875 219.222656 88.539062 220.859375 83.867188 C 221.546875 81.902344 220.601562 81.25 218.96875 78.695312 C 218.757812 78.367188 218.539062 78.019531 218.5 77.757812 C 218.441406 77.496094 218.695312 76.8125 219.050781 76.53125 C 219.160156 76.441406 219.191406 76.429688 219.394531 76.421875 L 223.316406 76.234375 M 235.203125 75.859375 C 235.203125 75.859375 235.882812 75.871094 236.578125 75.859375 C 238.792969 75.828125 242.511719 75.421875 242.511719 75.421875 C 242.511719 75.421875 242.09375 72.148438 241.757812 70.0625 C 241.527344 68.667969 241.347656 67.804688 241.046875 66.703125 C 240.910156 66.210938 240.570312 64.8125 240.214844 64.261719 C 240.152344 64.152344 240.058594 64.035156 240.058594 64.035156 C 240.058594 64.035156 238.265625 67.496094 237.261719 69.910156 C 236.464844 71.824219 236.0625 73.25 235.503906 74.410156 C 235.371094 74.683594 235.222656 75.054688 235.203125 75.375 C 235.1875 75.597656 235.203125 75.859375 235.203125 75.859375 M 279.152344 79.9375 C 279.25 79.945312 279.398438 79.992188 279.527344 80.046875 C 281.109375 80.738281 281.109375 83.566406 280.726562 84.894531 C 279.699219 88.394531 276.382812 92.003906 273.734375 93.800781 C 272.15625 94.855469 268.921875 96.355469 266.605469 96.796875 C 262.984375 97.496094 259.78125 96.535156 257.84375 93.605469 C 256.09375 90.957031 255.320312 87.679688 255.179688 84.597656 C 254.777344 75.753906 257.570312 62.832031 261.003906 55.445312 C 261.464844 54.457031 263.738281 49.839844 265.847656 49.097656 C 267.945312 48.355469 268.871094 50.816406 269.078125 52.65625 C 269.347656 55.023438 268.59375 58.160156 267.992188 60.699219 C 266.9375 65.140625 265.421875 72.085938 265.0625 74.074219 C 264.683594 76.179688 263.804688 80.6875 264.121094 82.988281 C 264.285156 84.207031 264.515625 84.820312 265.441406 84.742188 C 265.863281 84.707031 271.804688 81.976562 275.050781 80.761719 C 276.265625 80.3125 277.777344 79.824219 279.152344 79.9375 M 311.734375 53.167969 C 313.085938 54.859375 313.695312 56.847656 313.847656 59.023438 C 314 61.222656 313.296875 63.335938 312.074219 65.011719 C 309.972656 67.863281 306.472656 69.285156 302.957031 69.546875 C 302.476562 69.578125 299.609375 69.664062 298.871094 69.4375 C 298.738281 69.390625 298.65625 69.335938 298.582031 69.359375 C 298.496094 69.367188 298.015625 71.347656 297.929688 72.035156 C 297.613281 74.464844 297.230469 76.179688 296.953125 78.09375 C 296.71875 79.609375 296.550781 81.238281 296.414062 82.859375 C 295.621094 92.300781 295.898438 96.964844 296.679688 106.203125 C 296.730469 106.769531 296.761719 107.410156 296.679688 107.796875 C 296.46875 108.910156 295.792969 109.683594 294.710938 109.960938 C 291.453125 110.816406 288.335938 107.59375 286.738281 105.015625 C 283.007812 98.988281 284.226562 86.667969 285.300781 80.585938 C 285.742188 78.066406 286.886719 72.472656 287.683594 70.457031 C 288.105469 69.375 288.78125 67.242188 288.730469 67.140625 C 288.683594 67.046875 286.980469 66.398438 285.414062 65.792969 C 284.828125 65.582031 282.855469 64.558594 282.011719 64.03125 C 280.277344 62.941406 279.085938 62.054688 277.886719 60.699219 C 277.519531 60.277344 276.304688 58.472656 276.125 58.070312 C 275.15625 55.863281 275.097656 53.9375 275.960938 51.59375 C 276.179688 50.988281 277.390625 48.453125 278.191406 48.535156 C 279.351562 48.636719 279.097656 50.554688 279.402344 51.546875 C 279.503906 51.886719 279.828125 52.457031 280.085938 52.765625 C 281.6875 54.65625 287.070312 56.75 289.277344 57.410156 C 289.59375 57.511719 293.039062 58.5625 293.546875 58.328125 C 293.679688 58.265625 294.335938 57.101562 294.757812 56.394531 C 294.980469 56 295.234375 55.703125 295.511719 55.40625 C 297.609375 53.148438 300.707031 51.011719 303.789062 50.378906 C 305.148438 50.105469 307.808594 50.332031 309.15625 51.101562 C 309.460938 51.273438 310.464844 51.671875 311.734375 53.167969 M 301.585938 59.167969 C 303.902344 59.023438 305.34375 58.914062 307.152344 58.128906 C 308.152344 57.703125 309.3125 56.730469 308.742188 55.566406 C 308.398438 54.851562 307.171875 54.605469 306.453125 54.65625 C 304.027344 54.820312 302.277344 56.605469 301.449219 58.992188 C 301.414062 59.078125 301.425781 59.167969 301.585938 59.167969 M 434.753906 47.695312 C 434.378906 48.085938 433.980469 49.054688 433.566406 49.753906 C 433.347656 50.125 432.933594 50.605469 432.667969 50.792969 C 431.71875 51.492188 430.914062 51.523438 429.992188 50.714844 C 428.707031 49.585938 427.964844 47.820312 427.910156 46.109375 C 427.882812 45.359375 428.007812 44.539062 427.871094 43.902344 C 427.636719 42.839844 426.566406 41.75 425.996094 40.730469 C 425.324219 39.523438 424.78125 37.441406 424.714844 36.09375 C 424.476562 31.890625 426.695312 28.019531 429.578125 24.960938 C 432.476562 21.871094 436.265625 19.304688 440.394531 17.5625 C 444.289062 15.914062 450.007812 14.796875 454.289062 16.28125 C 455.679688 16.761719 457.625 17.949219 458.601562 19.183594 C 458.804688 19.445312 458.976562 19.730469 459.191406 19.863281 C 459.375 19.984375 459.875 20.03125 460.269531 20.105469 C 461.640625 20.34375 463.609375 21.375 464.410156 22.0625 C 466.015625 23.457031 466.90625 24.789062 467.3125 26.71875 C 468.136719 30.601562 465.898438 34.867188 463.351562 37.457031 C 458.984375 41.925781 454.675781 45.0625 449.089844 47.253906 C 446.640625 48.210938 442.820312 49.105469 440.039062 48.851562 C 439.175781 48.78125 438.285156 48.558594 437.445312 48.492188 C 437.019531 48.457031 435.449219 48.058594 435.28125 47.933594 C 435.074219 47.78125 434.808594 47.640625 434.753906 47.695312 M 444.054688 40.863281 C 447.707031 40.617188 451.128906 39.558594 454.308594 37.796875 C 457.433594 36.054688 462.023438 32.648438 461.554688 28.636719 C 461.402344 27.34375 460.558594 26.363281 459.488281 25.902344 C 458.089844 25.296875 457.363281 25.40625 455.582031 25.925781 C 454.292969 26.308594 453.714844 26.535156 452.496094 27.234375 C 448.90625 29.320312 443.832031 33.773438 441.074219 37.328125 C 440.433594 38.160156 439.789062 39.101562 439.289062 39.738281 C 438.964844 40.128906 438.722656 40.496094 438.75 40.597656 C 438.859375 41.003906 442.625 40.964844 444.054688 40.863281 M 431.207031 37.425781 C 431.207031 37.425781 432.414062 35.609375 433.429688 34.230469 C 435.28125 31.722656 438.628906 28.238281 441.144531 26.082031 C 441.921875 25.429688 442.824219 24.675781 442.824219 24.675781 C 442.824219 24.675781 441.402344 24.824219 440.601562 24.992188 C 438.6875 25.363281 435.886719 27.226562 434.480469 28.433594 C 432.171875 30.40625 429.632812 33.621094 430.777344 36.476562 C 430.945312 36.886719 431.207031 37.425781 431.207031 37.425781 "/>
</g>
<path style=" stroke:none;fill-rule:nonzero;fill:rgb(100%,100%,100%);fill-opacity:1;" d="M 634.886719 85.832031 L 641.4375 82.394531 C 644.347656 88.144531 648.851562 90.925781 654.933594 90.925781 C 660.886719 90.925781 664.925781 89.011719 664.925781 84.574219 C 664.925781 80.335938 661.878906 78.355469 653.808594 75.976562 C 644.347656 73.195312 636.738281 70.609375 636.738281 61.289062 C 636.738281 52.949219 643.550781 47.460938 653.476562 47.460938 C 663.136719 47.460938 668.832031 52.21875 671.804688 57.976562 L 665.785156 62.144531 C 662.871094 57.246094 658.703125 55.003906 653.410156 55.003906 C 647.988281 55.003906 644.878906 56.984375 644.878906 60.554688 C 644.878906 65.125 648.382812 66.640625 656.390625 69.03125 C 665.652344 71.738281 673.0625 74.785156 673.0625 83.984375 C 673.0625 91.984375 666.246094 98.269531 654.601562 98.269531 C 644.878906 98.269531 637.996094 93.242188 634.886719 85.832031 "/>
<path style=" stroke:none;fill-rule:nonzero;fill:rgb(100%,100%,100%);fill-opacity:1;" d="M 681 88.125 L 681 69.125 L 675 69.125 L 675 62.125 L 681 62.125 L 681 50.125 L 689 50.125 L 689 62.125 L 698 62.125 L 698 69.125 L 689 69.125 L 689 86.097656 C 689 89.867188 690.296875 91.390625 694.324219 91.390625 C 695.519531 91.390625 697 91.195312 698 90.925781 L 698 97.34375 C 697 97.539062 693.996094 97.8125 691.941406 97.8125 C 683.015625 97.8125 681 94.5 681 88.144531 "/>
<path style=" stroke:none;fill-rule:nonzero;fill:rgb(100%,100%,100%);fill-opacity:1;" d="M 703 87.125 L 703 62.125 L 711 62.125 L 711 85.5 C 711 89.40625 712.777344 91.195312 716.347656 91.195312 C 719.925781 91.195312 723 89.339844 726 86.632812 L 726 62.125 L 734 62.125 L 734 97.125 L 726 97.125 L 726 92.582031 C 724 94.964844 719.496094 98.003906 713.140625 98.003906 C 706.988281 98.003906 703 94.367188 703 87.421875 "/>
<path style=" stroke:none;fill-rule:nonzero;fill:rgb(100%,100%,100%);fill-opacity:1;" d="M 765 87.125 L 765 72.671875 C 763 69.820312 759.648438 68.304688 756.730469 68.304688 C 750.582031 68.304688 748.070312 72.269531 748.070312 80.078125 C 748.070312 87.484375 751.246094 91.195312 756.476562 91.195312 C 759.851562 91.195312 763.085938 89.253906 765.003906 86.941406 M 739.9375 79.875 C 739.9375 67.703125 745.949219 61.550781 754.949219 61.550781 C 758.71875 61.550781 762 63.074219 765 65.984375 L 765 48.125 L 773 48.125 L 773 88.742188 C 773 92.976562 773.414062 95.125 774.210938 97.125 L 765.808594 97.125 C 765.339844 96.125 765.011719 94.261719 765.011719 92.472656 C 762.433594 95.449219 759.054688 97.820312 753.828125 97.820312 C 745.824219 97.820312 739.9375 92.050781 739.9375 79.875 "/>
<path style=" stroke:none;fill-rule:nonzero;fill:rgb(100%,100%,100%);fill-opacity:1;" d="M 780.96875 62.125 L 789 62.125 L 789 97.125 L 781 97.125 L 781 62.210938 Z M 781 49.125 L 789 49.125 L 789 56.125 L 781 56.125 Z M 781 49.125 "/>
<path style=" stroke:none;fill-rule:nonzero;fill:rgb(100%,100%,100%);fill-opacity:1;" d="M 821.097656 79.808594 C 821.097656 73.257812 818.320312 68.496094 812.164062 68.496094 C 806.28125 68.496094 803.234375 72.734375 803.234375 79.808594 C 803.234375 86.496094 805.949219 91.257812 812.164062 91.257812 C 818.058594 91.257812 821.097656 87.019531 821.097656 79.808594 M 795.03125 79.808594 C 795.03125 66.84375 803.566406 61.550781 812.164062 61.550781 C 820.703125 61.550781 829.300781 66.84375 829.300781 79.808594 C 829.300781 92.644531 820.703125 98.074219 812.164062 98.074219 C 803.636719 98.074219 795.03125 92.644531 795.03125 79.808594 "/>
<path style=" stroke:none;fill-rule:nonzero;fill:rgb(100%,100%,100%);fill-opacity:1;" d="M 831.964844 92.511719 L 836.402344 87.550781 C 839.046875 89.804688 842.953125 91.722656 847.449219 91.722656 C 851.816406 91.722656 854.460938 90.59375 854.460938 87.6875 C 854.460938 84.835938 850.890625 83.980469 846.652344 82.988281 C 840.636719 81.59375 833.425781 80.007812 833.425781 71.871094 C 833.425781 65.714844 838.71875 61.554688 846.453125 61.554688 C 853.140625 61.554688 857.242188 63.464844 860.882812 66.511719 L 856.976562 71.804688 C 854.398438 69.691406 850.226562 67.96875 847.054688 67.96875 C 842.554688 67.96875 841.101562 69.558594 841.101562 71.539062 C 841.101562 74.382812 844.605469 75.246094 848.773438 76.171875 C 854.796875 77.492188 862.140625 79.015625 862.140625 87.21875 C 862.140625 94.632812 855.453125 98.078125 847.449219 98.078125 C 840.964844 98.078125 835.148438 95.757812 831.964844 92.511719 "/>
</g>
</svg>
